solid Hub
   facet normal 0.000000e+00 5.606993e-02 9.984268e-01
      outer loop
         vertex 0.000000e+00 1.000000e+01 2.000000e+01
         vertex 2.000000e+01 1.111964e+01 1.993712e+01
         vertex 0.000000e+00 1.111964e+01 1.993712e+01
      endloop
   endfacet
   facet normal -0.000000e+00 1.675063e-01 9.858710e-01
      outer loop
         vertex 0.000000e+00 1.111964e+01 1.993712e+01
         vertex 2.000000e+01 1.111964e+01 1.993712e+01
         vertex 2.000000e+01 1.222521e+01 1.974928e+01
      endloop
   endfacet
   facet normal 0.000000e+00 1.675063e-01 9.858710e-01
      outer loop
         vertex 0.000000e+00 1.111964e+01 1.993712e+01
         vertex 2.000000e+01 1.222521e+01 1.974928e+01
         vertex 0.000000e+00 1.222521e+01 1.974928e+01
      endloop
   endfacet
   facet normal -0.000000e+00 2.768357e-01 9.609173e-01
      outer loop
         vertex 0.000000e+00 1.222521e+01 1.974928e+01
         vertex 2.000000e+01 1.222521e+01 1.974928e+01
         vertex 2.000000e+01 1.330279e+01 1.943883e+01
      endloop
   endfacet
   facet normal 0.000000e+00 2.768357e-01 9.609173e-01
      outer loop
         vertex 0.000000e+00 1.222521e+01 1.974928e+01
         vertex 2.000000e+01 1.330279e+01 1.943883e+01
         vertex 0.000000e+00 1.330279e+01 1.943883e+01
      endloop
   endfacet
   facet normal -0.000000e+00 3.826831e-01 9.238797e-01
      outer loop
         vertex 0.000000e+00 1.330279e+01 1.943883e+01
         vertex 2.000000e+01 1.330279e+01 1.943883e+01
         vertex 2.000000e+01 1.433884e+01 1.900969e+01
      endloop
   endfacet
   facet normal 0.000000e+00 3.826831e-01 9.238797e-01
      outer loop
         vertex 0.000000e+00 1.330279e+01 1.943883e+01
         vertex 2.000000e+01 1.433884e+01 1.900969e+01
         vertex 0.000000e+00 1.433884e+01 1.900969e+01
      endloop
   endfacet
   facet normal -0.000000e+00 4.837190e-01 8.752234e-01
      outer loop
         vertex 0.000000e+00 1.433884e+01 1.900969e+01
         vertex 2.000000e+01 1.433884e+01 1.900969e+01
         vertex 2.000000e+01 1.532032e+01 1.846724e+01
      endloop
   endfacet
   facet normal 0.000000e+00 4.837190e-01 8.752234e-01
      outer loop
         vertex 0.000000e+00 1.433884e+01 1.900969e+01
         vertex 2.000000e+01 1.532032e+01 1.846724e+01
         vertex 0.000000e+00 1.532032e+01 1.846724e+01
      endloop
   endfacet
   facet normal -0.000000e+00 5.786711e-01 8.155610e-01
      outer loop
         vertex 0.000000e+00 1.532032e+01 1.846724e+01
         vertex 2.000000e+01 1.532032e+01 1.846724e+01
         vertex 2.000000e+01 1.623490e+01 1.781831e+01
      endloop
   endfacet
   facet normal 0.000000e+00 5.786711e-01 8.155610e-01
      outer loop
         vertex 0.000000e+00 1.532032e+01 1.846724e+01
         vertex 2.000000e+01 1.623490e+01 1.781831e+01
         vertex 0.000000e+00 1.623490e+01 1.781831e+01
      endloop
   endfacet
   facet normal -0.000000e+00 6.663471e-01 7.456417e-01
      outer loop
         vertex 0.000000e+00 1.623490e+01 1.781831e+01
         vertex 2.000000e+01 1.623490e+01 1.781831e+01
         vertex 2.000000e+01 1.707107e+01 1.707107e+01
      endloop
   endfacet
   facet normal 0.000000e+00 6.663471e-01 7.456417e-01
      outer loop
         vertex 0.000000e+00 1.623490e+01 1.781831e+01
         vertex 2.000000e+01 1.707107e+01 1.707107e+01
         vertex 0.000000e+00 1.707107e+01 1.707107e+01
      endloop
   endfacet
   facet normal -0.000000e+00 7.456417e-01 6.663471e-01
      outer loop
         vertex 0.000000e+00 1.707107e+01 1.707107e+01
         vertex 2.000000e+01 1.707107e+01 1.707107e+01
         vertex 2.000000e+01 1.781831e+01 1.623490e+01
      endloop
   endfacet
   facet normal 0.000000e+00 7.456417e-01 6.663471e-01
      outer loop
         vertex 0.000000e+00 1.707107e+01 1.707107e+01
         vertex 2.000000e+01 1.781831e+01 1.623490e+01
         vertex 0.000000e+00 1.781831e+01 1.623490e+01
      endloop
   endfacet
   facet normal -0.000000e+00 8.155610e-01 5.786711e-01
      outer loop
         vertex 0.000000e+00 1.781831e+01 1.623490e+01
         vertex 2.000000e+01 1.781831e+01 1.623490e+01
         vertex 2.000000e+01 1.846724e+01 1.532032e+01
      endloop
   endfacet
   facet normal 0.000000e+00 8.155610e-01 5.786711e-01
      outer loop
         vertex 0.000000e+00 1.781831e+01 1.623490e+01
         vertex 2.000000e+01 1.846724e+01 1.532032e+01
         vertex 0.000000e+00 1.846724e+01 1.532032e+01
      endloop
   endfacet
   facet normal -0.000000e+00 8.752234e-01 4.837190e-01
      outer loop
         vertex 0.000000e+00 1.846724e+01 1.532032e+01
         vertex 2.000000e+01 1.846724e+01 1.532032e+01
         vertex 2.000000e+01 1.900969e+01 1.433884e+01
      endloop
   endfacet
   facet normal 0.000000e+00 8.752234e-01 4.837190e-01
      outer loop
         vertex 0.000000e+00 1.846724e+01 1.532032e+01
         vertex 2.000000e+01 1.900969e+01 1.433884e+01
         vertex 0.000000e+00 1.900969e+01 1.433884e+01
      endloop
   endfacet
   facet normal -0.000000e+00 9.238797e-01 3.826831e-01
      outer loop
         vertex 0.000000e+00 1.900969e+01 1.433884e+01
         vertex 2.000000e+01 1.900969e+01 1.433884e+01
         vertex 2.000000e+01 1.943883e+01 1.330279e+01
      endloop
   endfacet
   facet normal 0.000000e+00 9.238797e-01 3.826831e-01
      outer loop
         vertex 0.000000e+00 1.900969e+01 1.433884e+01
         vertex 2.000000e+01 1.943883e+01 1.330279e+01
         vertex 0.000000e+00 1.943883e+01 1.330279e+01
      endloop
   endfacet
   facet normal -0.000000e+00 9.609173e-01 2.768357e-01
      outer loop
         vertex 0.000000e+00 1.943883e+01 1.330279e+01
         vertex 2.000000e+01 1.943883e+01 1.330279e+01
         vertex 2.000000e+01 1.974928e+01 1.222521e+01
      endloop
   endfacet
   facet normal 0.000000e+00 9.609173e-01 2.768357e-01
      outer loop
         vertex 0.000000e+00 1.943883e+01 1.330279e+01
         vertex 2.000000e+01 1.974928e+01 1.222521e+01
         vertex 0.000000e+00 1.974928e+01 1.222521e+01
      endloop
   endfacet
   facet normal -0.000000e+00 9.858710e-01 1.675063e-01
      outer loop
         vertex 0.000000e+00 1.974928e+01 1.222521e+01
         vertex 2.000000e+01 1.974928e+01 1.222521e+01
         vertex 2.000000e+01 1.993712e+01 1.111964e+01
      endloop
   endfacet
   facet normal 0.000000e+00 9.858710e-01 1.675063e-01
      outer loop
         vertex 0.000000e+00 1.974928e+01 1.222521e+01
         vertex 2.000000e+01 1.993712e+01 1.111964e+01
         vertex 0.000000e+00 1.993712e+01 1.111964e+01
      endloop
   endfacet
   facet normal -0.000000e+00 9.984268e-01 5.606993e-02
      outer loop
         vertex 0.000000e+00 1.993712e+01 1.111964e+01
         vertex 2.000000e+01 1.993712e+01 1.111964e+01
         vertex 2.000000e+01 2.000000e+01 1.000000e+01
      endloop
   endfacet
   facet normal 0.000000e+00 9.984268e-01 5.606993e-02
      outer loop
         vertex 0.000000e+00 1.993712e+01 1.111964e+01
         vertex 2.000000e+01 2.000000e+01 1.000000e+01
         vertex 0.000000e+00 2.000000e+01 1.000000e+01
      endloop
   endfacet
   facet normal 0.000000e+00 9.984268e-01 -5.606993e-02
      outer loop
         vertex 0.000000e+00 2.000000e+01 1.000000e+01
         vertex 2.000000e+01 2.000000e+01 1.000000e+01
         vertex 2.000000e+01 1.993712e+01 8.880355e+00
      endloop
   endfacet
   facet normal 0.000000e+00 9.984268e-01 -5.606993e-02
      outer loop
         vertex 0.000000e+00 2.000000e+01 1.000000e+01
         vertex 2.000000e+01 1.993712e+01 8.880355e+00
         vertex 0.000000e+00 1.993712e+01 8.880355e+00
      endloop
   endfacet
   facet normal 0.000000e+00 9.858710e-01 -1.675063e-01
      outer loop
         vertex 0.000000e+00 1.993712e+01 8.880355e+00
         vertex 2.000000e+01 1.993712e+01 8.880355e+00
         vertex 2.000000e+01 1.974928e+01 7.774791e+00
      endloop
   endfacet
   facet normal 0.000000e+00 9.858710e-01 -1.675063e-01
      outer loop
         vertex 0.000000e+00 1.993712e+01 8.880355e+00
         vertex 2.000000e+01 1.974928e+01 7.774791e+00
         vertex 0.000000e+00 1.974928e+01 7.774791e+00
      endloop
   endfacet
   facet normal 0.000000e+00 9.609173e-01 -2.768357e-01
      outer loop
         vertex 0.000000e+00 1.974928e+01 7.774791e+00
         vertex 2.000000e+01 1.974928e+01 7.774791e+00
         vertex 2.000000e+01 1.943883e+01 6.697209e+00
      endloop
   endfacet
   facet normal 0.000000e+00 9.609173e-01 -2.768357e-01
      outer loop
         vertex 0.000000e+00 1.974928e+01 7.774791e+00
         vertex 2.000000e+01 1.943883e+01 6.697209e+00
         vertex 0.000000e+00 1.943883e+01 6.697209e+00
      endloop
   endfacet
   facet normal 0.000000e+00 9.238797e-01 -3.826831e-01
      outer loop
         vertex 0.000000e+00 1.943883e+01 6.697209e+00
         vertex 2.000000e+01 1.943883e+01 6.697209e+00
         vertex 2.000000e+01 1.900969e+01 5.661163e+00
      endloop
   endfacet
   facet normal 0.000000e+00 9.238797e-01 -3.826831e-01
      outer loop
         vertex 0.000000e+00 1.943883e+01 6.697209e+00
         vertex 2.000000e+01 1.900969e+01 5.661163e+00
         vertex 0.000000e+00 1.900969e+01 5.661163e+00
      endloop
   endfacet
   facet normal 0.000000e+00 8.752234e-01 -4.837190e-01
      outer loop
         vertex 0.000000e+00 1.900969e+01 5.661163e+00
         vertex 2.000000e+01 1.900969e+01 5.661163e+00
         vertex 2.000000e+01 1.846724e+01 4.679679e+00
      endloop
   endfacet
   facet normal 0.000000e+00 8.752234e-01 -4.837190e-01
      outer loop
         vertex 0.000000e+00 1.900969e+01 5.661163e+00
         vertex 2.000000e+01 1.846724e+01 4.679679e+00
         vertex 0.000000e+00 1.846724e+01 4.679679e+00
      endloop
   endfacet
   facet normal 0.000000e+00 8.155610e-01 -5.786711e-01
      outer loop
         vertex 0.000000e+00 1.846724e+01 4.679679e+00
         vertex 2.000000e+01 1.846724e+01 4.679679e+00
         vertex 2.000000e+01 1.781831e+01 3.765102e+00
      endloop
   endfacet
   facet normal 0.000000e+00 8.155610e-01 -5.786711e-01
      outer loop
         vertex 0.000000e+00 1.846724e+01 4.679679e+00
         vertex 2.000000e+01 1.781831e+01 3.765102e+00
         vertex 0.000000e+00 1.781831e+01 3.765102e+00
      endloop
   endfacet
   facet normal 0.000000e+00 7.456417e-01 -6.663471e-01
      outer loop
         vertex 0.000000e+00 1.781831e+01 3.765102e+00
         vertex 2.000000e+01 1.781831e+01 3.765102e+00
         vertex 2.000000e+01 1.707107e+01 2.928932e+00
      endloop
   endfacet
   facet normal 0.000000e+00 7.456417e-01 -6.663471e-01
      outer loop
         vertex 0.000000e+00 1.781831e+01 3.765102e+00
         vertex 2.000000e+01 1.707107e+01 2.928932e+00
         vertex 0.000000e+00 1.707107e+01 2.928932e+00
      endloop
   endfacet
   facet normal 0.000000e+00 6.663471e-01 -7.456417e-01
      outer loop
         vertex 0.000000e+00 1.707107e+01 2.928932e+00
         vertex 2.000000e+01 1.707107e+01 2.928932e+00
         vertex 2.000000e+01 1.623490e+01 2.181685e+00
      endloop
   endfacet
   facet normal 0.000000e+00 6.663471e-01 -7.456417e-01
      outer loop
         vertex 0.000000e+00 1.707107e+01 2.928932e+00
         vertex 2.000000e+01 1.623490e+01 2.181685e+00
         vertex 0.000000e+00 1.623490e+01 2.181685e+00
      endloop
   endfacet
   facet normal 0.000000e+00 5.786711e-01 -8.155610e-01
      outer loop
         vertex 0.000000e+00 1.623490e+01 2.181685e+00
         vertex 2.000000e+01 1.623490e+01 2.181685e+00
         vertex 2.000000e+01 1.532032e+01 1.532758e+00
      endloop
   endfacet
   facet normal 0.000000e+00 5.786711e-01 -8.155610e-01
      outer loop
         vertex 0.000000e+00 1.623490e+01 2.181685e+00
         vertex 2.000000e+01 1.532032e+01 1.532758e+00
         vertex 0.000000e+00 1.532032e+01 1.532758e+00
      endloop
   endfacet
   facet normal 0.000000e+00 4.837190e-01 -8.752234e-01
      outer loop
         vertex 0.000000e+00 1.532032e+01 1.532758e+00
         vertex 2.000000e+01 1.532032e+01 1.532758e+00
         vertex 2.000000e+01 1.433884e+01 9.903107e-01
      endloop
   endfacet
   facet normal 0.000000e+00 4.837190e-01 -8.752234e-01
      outer loop
         vertex 0.000000e+00 1.532032e+01 1.532758e+00
         vertex 2.000000e+01 1.433884e+01 9.903107e-01
         vertex 0.000000e+00 1.433884e+01 9.903107e-01
      endloop
   endfacet
   facet normal 0.000000e+00 3.826831e-01 -9.238797e-01
      outer loop
         vertex 0.000000e+00 1.433884e+01 9.903107e-01
         vertex 2.000000e+01 1.433884e+01 9.903107e-01
         vertex 2.000000e+01 1.330279e+01 5.611666e-01
      endloop
   endfacet
   facet normal 0.000000e+00 3.826831e-01 -9.238797e-01
      outer loop
         vertex 0.000000e+00 1.433884e+01 9.903107e-01
         vertex 2.000000e+01 1.330279e+01 5.611666e-01
         vertex 0.000000e+00 1.330279e+01 5.611666e-01
      endloop
   endfacet
   facet normal 0.000000e+00 2.768357e-01 -9.609173e-01
      outer loop
         vertex 0.000000e+00 1.330279e+01 5.611666e-01
         vertex 2.000000e+01 1.330279e+01 5.611666e-01
         vertex 2.000000e+01 1.222521e+01 2.507204e-01
      endloop
   endfacet
   facet normal 0.000000e+00 2.768357e-01 -9.609173e-01
      outer loop
         vertex 0.000000e+00 1.330279e+01 5.611666e-01
         vertex 2.000000e+01 1.222521e+01 2.507204e-01
         vertex 0.000000e+00 1.222521e+01 2.507204e-01
      endloop
   endfacet
   facet normal 0.000000e+00 1.675063e-01 -9.858710e-01
      outer loop
         vertex 0.000000e+00 1.222521e+01 2.507204e-01
         vertex 2.000000e+01 1.222521e+01 2.507204e-01
         vertex 2.000000e+01 1.111964e+01 6.287731e-02
      endloop
   endfacet
   facet normal 0.000000e+00 1.675063e-01 -9.858710e-01
      outer loop
         vertex 0.000000e+00 1.222521e+01 2.507204e-01
         vertex 2.000000e+01 1.111964e+01 6.287731e-02
         vertex 0.000000e+00 1.111964e+01 6.287731e-02
      endloop
   endfacet
   facet normal 0.000000e+00 5.606993e-02 -9.984268e-01
      outer loop
         vertex 0.000000e+00 1.111964e+01 6.287731e-02
         vertex 2.000000e+01 1.111964e+01 6.287731e-02
         vertex 2.000000e+01 1.000000e+01 0.000000e+00
      endloop
   endfacet
   facet normal 0.000000e+00 5.606993e-02 -9.984268e-01
      outer loop
         vertex 0.000000e+00 1.111964e+01 6.287731e-02
         vertex 2.000000e+01 1.000000e+01 0.000000e+00
         vertex 0.000000e+00 1.000000e+01 0.000000e+00
      endloop
   endfacet
   facet normal 0.000000e+00 -5.606993e-02 -9.984268e-01
      outer loop
         vertex 0.000000e+00 1.000000e+01 0.000000e+00
         vertex 2.000000e+01 1.000000e+01 0.000000e+00
         vertex 2.000000e+01 8.880355e+00 6.287731e-02
      endloop
   endfacet
   facet normal 0.000000e+00 -5.606993e-02 -9.984268e-01
      outer loop
         vertex 0.000000e+00 1.000000e+01 0.000000e+00
         vertex 2.000000e+01 8.880355e+00 6.287731e-02
         vertex 0.000000e+00 8.880355e+00 6.287731e-02
      endloop
   endfacet
   facet normal 0.000000e+00 -1.675063e-01 -9.858710e-01
      outer loop
         vertex 0.000000e+00 8.880355e+00 6.287731e-02
         vertex 2.000000e+01 8.880355e+00 6.287731e-02
         vertex 2.000000e+01 7.774791e+00 2.507204e-01
      endloop
   endfacet
   facet normal 0.000000e+00 -1.675063e-01 -9.858710e-01
      outer loop
         vertex 0.000000e+00 8.880355e+00 6.287731e-02
         vertex 2.000000e+01 7.774791e+00 2.507204e-01
         vertex 0.000000e+00 7.774791e+00 2.507204e-01
      endloop
   endfacet
   facet normal 0.000000e+00 -2.768357e-01 -9.609173e-01
      outer loop
         vertex 0.000000e+00 7.774791e+00 2.507204e-01
         vertex 2.000000e+01 7.774791e+00 2.507204e-01
         vertex 2.000000e+01 6.697209e+00 5.611666e-01
      endloop
   endfacet
   facet normal 0.000000e+00 -2.768357e-01 -9.609173e-01
      outer loop
         vertex 0.000000e+00 7.774791e+00 2.507204e-01
         vertex 2.000000e+01 6.697209e+00 5.611666e-01
         vertex 0.000000e+00 6.697209e+00 5.611666e-01
      endloop
   endfacet
   facet normal 0.000000e+00 -3.826831e-01 -9.238797e-01
      outer loop
         vertex 0.000000e+00 6.697209e+00 5.611666e-01
         vertex 2.000000e+01 6.697209e+00 5.611666e-01
         vertex 2.000000e+01 5.661163e+00 9.903107e-01
      endloop
   endfacet
   facet normal 0.000000e+00 -3.826831e-01 -9.238797e-01
      outer loop
         vertex 0.000000e+00 6.697209e+00 5.611666e-01
         vertex 2.000000e+01 5.661163e+00 9.903107e-01
         vertex 0.000000e+00 5.661163e+00 9.903107e-01
      endloop
   endfacet
   facet normal 0.000000e+00 -4.837190e-01 -8.752234e-01
      outer loop
         vertex 0.000000e+00 5.661163e+00 9.903107e-01
         vertex 2.000000e+01 5.661163e+00 9.903107e-01
         vertex 2.000000e+01 4.679679e+00 1.532758e+00
      endloop
   endfacet
   facet normal 0.000000e+00 -4.837190e-01 -8.752234e-01
      outer loop
         vertex 0.000000e+00 5.661163e+00 9.903107e-01
         vertex 2.000000e+01 4.679679e+00 1.532758e+00
         vertex 0.000000e+00 4.679679e+00 1.532758e+00
      endloop
   endfacet
   facet normal 0.000000e+00 -5.786711e-01 -8.155610e-01
      outer loop
         vertex 0.000000e+00 4.679679e+00 1.532758e+00
         vertex 2.000000e+01 4.679679e+00 1.532758e+00
         vertex 2.000000e+01 3.765102e+00 2.181685e+00
      endloop
   endfacet
   facet normal 0.000000e+00 -5.786711e-01 -8.155610e-01
      outer loop
         vertex 0.000000e+00 4.679679e+00 1.532758e+00
         vertex 2.000000e+01 3.765102e+00 2.181685e+00
         vertex 0.000000e+00 3.765102e+00 2.181685e+00
      endloop
   endfacet
   facet normal 0.000000e+00 -6.663471e-01 -7.456417e-01
      outer loop
         vertex 0.000000e+00 3.765102e+00 2.181685e+00
         vertex 2.000000e+01 3.765102e+00 2.181685e+00
         vertex 2.000000e+01 2.928932e+00 2.928932e+00
      endloop
   endfacet
   facet normal 0.000000e+00 -6.663471e-01 -7.456417e-01
      outer loop
         vertex 0.000000e+00 3.765102e+00 2.181685e+00
         vertex 2.000000e+01 2.928932e+00 2.928932e+00
         vertex 0.000000e+00 2.928932e+00 2.928932e+00
      endloop
   endfacet
   facet normal 0.000000e+00 -7.456417e-01 -6.663471e-01
      outer loop
         vertex 0.000000e+00 2.928932e+00 2.928932e+00
         vertex 2.000000e+01 2.928932e+00 2.928932e+00
         vertex 2.000000e+01 2.181685e+00 3.765102e+00
      endloop
   endfacet
   facet normal 0.000000e+00 -7.456417e-01 -6.663471e-01
      outer loop
         vertex 0.000000e+00 2.928932e+00 2.928932e+00
         vertex 2.000000e+01 2.181685e+00 3.765102e+00
         vertex 0.000000e+00 2.181685e+00 3.765102e+00
      endloop
   endfacet
   facet normal 0.000000e+00 -8.155610e-01 -5.786711e-01
      outer loop
         vertex 0.000000e+00 2.181685e+00 3.765102e+00
         vertex 2.000000e+01 2.181685e+00 3.765102e+00
         vertex 2.000000e+01 1.532758e+00 4.679679e+00
      endloop
   endfacet
   facet normal 0.000000e+00 -8.155610e-01 -5.786711e-01
      outer loop
         vertex 0.000000e+00 2.181685e+00 3.765102e+00
         vertex 2.000000e+01 1.532758e+00 4.679679e+00
         vertex 0.000000e+00 1.532758e+00 4.679679e+00
      endloop
   endfacet
   facet normal 0.000000e+00 -8.752234e-01 -4.837190e-01
      outer loop
         vertex 0.000000e+00 1.532758e+00 4.679679e+00
         vertex 2.000000e+01 1.532758e+00 4.679679e+00
         vertex 2.000000e+01 9.903107e-01 5.661163e+00
      endloop
   endfacet
   facet normal 0.000000e+00 -8.752234e-01 -4.837190e-01
      outer loop
         vertex 0.000000e+00 1.532758e+00 4.679679e+00
         vertex 2.000000e+01 9.903107e-01 5.661163e+00
         vertex 0.000000e+00 9.903107e-01 5.661163e+00
      endloop
   endfacet
   facet normal 0.000000e+00 -9.238797e-01 -3.826831e-01
      outer loop
         vertex 0.000000e+00 9.903107e-01 5.661163e+00
         vertex 2.000000e+01 9.903107e-01 5.661163e+00
         vertex 2.000000e+01 5.611666e-01 6.697209e+00
      endloop
   endfacet
   facet normal 0.000000e+00 -9.238797e-01 -3.826831e-01
      outer loop
         vertex 0.000000e+00 9.903107e-01 5.661163e+00
         vertex 2.000000e+01 5.611666e-01 6.697209e+00
         vertex 0.000000e+00 5.611666e-01 6.697209e+00
      endloop
   endfacet
   facet normal 0.000000e+00 -9.609173e-01 -2.768357e-01
      outer loop
         vertex 0.000000e+00 5.611666e-01 6.697209e+00
         vertex 2.000000e+01 5.611666e-01 6.697209e+00
         vertex 2.000000e+01 2.507204e-01 7.774791e+00
      endloop
   endfacet
   facet normal 0.000000e+00 -9.609173e-01 -2.768357e-01
      outer loop
         vertex 0.000000e+00 5.611666e-01 6.697209e+00
         vertex 2.000000e+01 2.507204e-01 7.774791e+00
         vertex 0.000000e+00 2.507204e-01 7.774791e+00
      endloop
   endfacet
   facet normal 0.000000e+00 -9.858710e-01 -1.675063e-01
      outer loop
         vertex 0.000000e+00 2.507204e-01 7.774791e+00
         vertex 2.000000e+01 2.507204e-01 7.774791e+00
         vertex 2.000000e+01 6.287731e-02 8.880355e+00
      endloop
   endfacet
   facet normal 0.000000e+00 -9.858710e-01 -1.675063e-01
      outer loop
         vertex 0.000000e+00 2.507204e-01 7.774791e+00
         vertex 2.000000e+01 6.287731e-02 8.880355e+00
         vertex 0.000000e+00 6.287731e-02 8.880355e+00
      endloop
   endfacet
   facet normal 0.000000e+00 -9.984268e-01 -5.606993e-02
      outer loop
         vertex 0.000000e+00 6.287731e-02 8.880355e+00
         vertex 2.000000e+01 6.287731e-02 8.880355e+00
         vertex 2.000000e+01 0.000000e+00 1.000000e+01
      endloop
   endfacet
   facet normal 0.000000e+00 -9.984268e-01 -5.606993e-02
      outer loop
         vertex 0.000000e+00 6.287731e-02 8.880355e+00
         vertex 2.000000e+01 0.000000e+00 1.000000e+01
         vertex 0.000000e+00 0.000000e+00 1.000000e+01
      endloop
   endfacet
   facet normal 0.000000e+00 -9.984268e-01 5.606993e-02
      outer loop
         vertex 0.000000e+00 0.000000e+00 1.000000e+01
         vertex 2.000000e+01 0.000000e+00 1.000000e+01
         vertex 2.000000e+01 6.287731e-02 1.111964e+01
      endloop
   endfacet
   facet normal 0.000000e+00 -9.984268e-01 5.606993e-02
      outer loop
         vertex 0.000000e+00 0.000000e+00 1.000000e+01
         vertex 2.000000e+01 6.287731e-02 1.111964e+01
         vertex 0.000000e+00 6.287731e-02 1.111964e+01
      endloop
   endfacet
   facet normal 0.000000e+00 -9.858710e-01 1.675063e-01
      outer loop
         vertex 0.000000e+00 6.287731e-02 1.111964e+01
         vertex 2.000000e+01 6.287731e-02 1.111964e+01
         vertex 2.000000e+01 2.507204e-01 1.222521e+01
      endloop
   endfacet
   facet normal 0.000000e+00 -9.858710e-01 1.675063e-01
      outer loop
         vertex 0.000000e+00 6.287731e-02 1.111964e+01
         vertex 2.000000e+01 2.507204e-01 1.222521e+01
         vertex 0.000000e+00 2.507204e-01 1.222521e+01
      endloop
   endfacet
   facet normal 0.000000e+00 -9.609173e-01 2.768357e-01
      outer loop
         vertex 0.000000e+00 2.507204e-01 1.222521e+01
         vertex 2.000000e+01 2.507204e-01 1.222521e+01
         vertex 2.000000e+01 5.611666e-01 1.330279e+01
      endloop
   endfacet
   facet normal 0.000000e+00 -9.609173e-01 2.768357e-01
      outer loop
         vertex 0.000000e+00 2.507204e-01 1.222521e+01
         vertex 2.000000e+01 5.611666e-01 1.330279e+01
         vertex 0.000000e+00 5.611666e-01 1.330279e+01
      endloop
   endfacet
   facet normal 0.000000e+00 -9.238797e-01 3.826831e-01
      outer loop
         vertex 0.000000e+00 5.611666e-01 1.330279e+01
         vertex 2.000000e+01 5.611666e-01 1.330279e+01
         vertex 2.000000e+01 9.903107e-01 1.433884e+01
      endloop
   endfacet
   facet normal 0.000000e+00 -9.238797e-01 3.826831e-01
      outer loop
         vertex 0.000000e+00 5.611666e-01 1.330279e+01
         vertex 2.000000e+01 9.903107e-01 1.433884e+01
         vertex 0.000000e+00 9.903107e-01 1.433884e+01
      endloop
   endfacet
   facet normal 0.000000e+00 -8.752234e-01 4.837190e-01
      outer loop
         vertex 0.000000e+00 9.903107e-01 1.433884e+01
         vertex 2.000000e+01 9.903107e-01 1.433884e+01
         vertex 2.000000e+01 1.532758e+00 1.532032e+01
      endloop
   endfacet
   facet normal 0.000000e+00 -8.752234e-01 4.837190e-01
      outer loop
         vertex 0.000000e+00 9.903107e-01 1.433884e+01
         vertex 2.000000e+01 1.532758e+00 1.532032e+01
         vertex 0.000000e+00 1.532758e+00 1.532032e+01
      endloop
   endfacet
   facet normal 0.000000e+00 -8.155610e-01 5.786711e-01
      outer loop
         vertex 0.000000e+00 1.532758e+00 1.532032e+01
         vertex 2.000000e+01 1.532758e+00 1.532032e+01
         vertex 2.000000e+01 2.181685e+00 1.623490e+01
      endloop
   endfacet
   facet normal 0.000000e+00 -8.155610e-01 5.786711e-01
      outer loop
         vertex 0.000000e+00 1.532758e+00 1.532032e+01
         vertex 2.000000e+01 2.181685e+00 1.623490e+01
         vertex 0.000000e+00 2.181685e+00 1.623490e+01
      endloop
   endfacet
   facet normal 0.000000e+00 -7.456417e-01 6.663471e-01
      outer loop
         vertex 0.000000e+00 2.181685e+00 1.623490e+01
         vertex 2.000000e+01 2.181685e+00 1.623490e+01
         vertex 2.000000e+01 2.928932e+00 1.707107e+01
      endloop
   endfacet
   facet normal 0.000000e+00 -7.456417e-01 6.663471e-01
      outer loop
         vertex 0.000000e+00 2.181685e+00 1.623490e+01
         vertex 2.000000e+01 2.928932e+00 1.707107e+01
         vertex 0.000000e+00 2.928932e+00 1.707107e+01
      endloop
   endfacet
   facet normal 0.000000e+00 -6.663471e-01 7.456417e-01
      outer loop
         vertex 0.000000e+00 2.928932e+00 1.707107e+01
         vertex 2.000000e+01 2.928932e+00 1.707107e+01
         vertex 2.000000e+01 3.765102e+00 1.781831e+01
      endloop
   endfacet
   facet normal 0.000000e+00 -6.663471e-01 7.456417e-01
      outer loop
         vertex 0.000000e+00 2.928932e+00 1.707107e+01
         vertex 2.000000e+01 3.765102e+00 1.781831e+01
         vertex 0.000000e+00 3.765102e+00 1.781831e+01
      endloop
   endfacet
   facet normal 0.000000e+00 -5.786711e-01 8.155610e-01
      outer loop
         vertex 0.000000e+00 3.765102e+00 1.781831e+01
         vertex 2.000000e+01 3.765102e+00 1.781831e+01
         vertex 2.000000e+01 4.679679e+00 1.846724e+01
      endloop
   endfacet
   facet normal 0.000000e+00 -5.786711e-01 8.155610e-01
      outer loop
         vertex 0.000000e+00 3.765102e+00 1.781831e+01
         vertex 2.000000e+01 4.679679e+00 1.846724e+01
         vertex 0.000000e+00 4.679679e+00 1.846724e+01
      endloop
   endfacet
   facet normal 0.000000e+00 -4.837190e-01 8.752234e-01
      outer loop
         vertex 0.000000e+00 4.679679e+00 1.846724e+01
         vertex 2.000000e+01 4.679679e+00 1.846724e+01
         vertex 2.000000e+01 5.661163e+00 1.900969e+01
      endloop
   endfacet
   facet normal 0.000000e+00 -4.837190e-01 8.752234e-01
      outer loop
         vertex 0.000000e+00 4.679679e+00 1.846724e+01
         vertex 2.000000e+01 5.661163e+00 1.900969e+01
         vertex 0.000000e+00 5.661163e+00 1.900969e+01
      endloop
   endfacet
   facet normal 0.000000e+00 -3.826831e-01 9.238797e-01
      outer loop
         vertex 0.000000e+00 5.661163e+00 1.900969e+01
         vertex 2.000000e+01 5.661163e+00 1.900969e+01
         vertex 2.000000e+01 6.697209e+00 1.943883e+01
      endloop
   endfacet
   facet normal 0.000000e+00 -3.826831e-01 9.238797e-01
      outer loop
         vertex 0.000000e+00 5.661163e+00 1.900969e+01
         vertex 2.000000e+01 6.697209e+00 1.943883e+01
         vertex 0.000000e+00 6.697209e+00 1.943883e+01
      endloop
   endfacet
   facet normal 0.000000e+00 -2.768357e-01 9.609173e-01
      outer loop
         vertex 0.000000e+00 6.697209e+00 1.943883e+01
         vertex 2.000000e+01 6.697209e+00 1.943883e+01
         vertex 2.000000e+01 7.774791e+00 1.974928e+01
      endloop
   endfacet
   facet normal 0.000000e+00 -2.768357e-01 9.609173e-01
      outer loop
         vertex 0.000000e+00 6.697209e+00 1.943883e+01
         vertex 2.000000e+01 7.774791e+00 1.974928e+01
         vertex 0.000000e+00 7.774791e+00 1.974928e+01
      endloop
   endfacet
   facet normal 0.000000e+00 -1.675063e-01 9.858710e-01
      outer loop
         vertex 0.000000e+00 7.774791e+00 1.974928e+01
         vertex 2.000000e+01 7.774791e+00 1.974928e+01
         vertex 2.000000e+01 8.880355e+00 1.993712e+01
      endloop
   endfacet
   facet normal 0.000000e+00 -1.675063e-01 9.858710e-01
      outer loop
         vertex 0.000000e+00 7.774791e+00 1.974928e+01
         vertex 2.000000e+01 8.880355e+00 1.993712e+01
         vertex 0.000000e+00 8.880355e+00 1.993712e+01
      endloop
   endfacet
   facet normal 0.000000e+00 -5.606993e-02 9.984268e-01
      outer loop
         vertex 0.000000e+00 8.880355e+00 1.993712e+01
         vertex 2.000000e+01 8.880355e+00 1.993712e+01
         vertex 2.000000e+01 1.000000e+01 2.000000e+01
      endloop
   endfacet
   facet normal 0.000000e+00 -5.606993e-02 9.984268e-01
      outer loop
         vertex 0.000000e+00 8.880355e+00 1.993712e+01
         vertex 2.000000e+01 1.000000e+01 2.000000e+01
         vertex 0.000000e+00 1.000000e+01 2.000000e+01
      endloop
   endfacet
   facet normal -0.000000e+00 5.606993e-02 9.984268e-01
      outer loop
         vertex 0.000000e+00 1.000000e+01 2.000000e+01
         vertex 2.000000e+01 1.000000e+01 2.000000e+01
         vertex 2.000000e+01 1.111964e+01 1.993712e+01
      endloop
   endfacet
   facet normal 1.000000e+00 0.000000e+00 -0.000000e+00
      outer loop
         vertex 2.000000e+01 1.000000e+01 0.000000e+00
         vertex 2.000000e+01 1.111964e+01 6.287731e-02
         vertex 2.000000e+01 1.000000e+01 1.000000e+01
      endloop
   endfacet
   facet normal 1.000000e+00 0.000000e+00 0.000000e+00
      outer loop
         vertex 2.000000e+01 1.000000e+01 0.000000e+00
         vertex 2.000000e+01 1.000000e+01 1.000000e+01
         vertex 2.000000e+01 8.880355e+00 6.287731e-02
      endloop
   endfacet
   facet normal 1.000000e+00 -0.000000e+00 0.000000e+00
      outer loop
         vertex 2.000000e+01 5.661163e+00 9.903107e-01
         vertex 2.000000e+01 6.697209e+00 5.611666e-01
         vertex 2.000000e+01 1.000000e+01 1.000000e+01
      endloop
   endfacet
   facet normal 1.000000e+00 0.000000e+00 0.000000e+00
      outer loop
         vertex 2.000000e+01 1.000000e+01 1.000000e+01
         vertex 2.000000e+01 6.697209e+00 5.611666e-01
         vertex 2.000000e+01 7.774791e+00 2.507204e-01
      endloop
   endfacet
   facet normal 1.000000e+00 0.000000e+00 0.000000e+00
      outer loop
         vertex 2.000000e+01 1.000000e+01 1.000000e+01
         vertex 2.000000e+01 7.774791e+00 2.507204e-01
         vertex 2.000000e+01 8.880355e+00 6.287731e-02
      endloop
   endfacet
   facet normal 1.000000e+00 -0.000000e+00 0.000000e+00
      outer loop
         vertex 2.000000e+01 2.928932e+00 2.928932e+00
         vertex 2.000000e+01 3.765102e+00 2.181685e+00
         vertex 2.000000e+01 1.000000e+01 1.000000e+01
      endloop
   endfacet
   facet normal 1.000000e+00 0.000000e+00 0.000000e+00
      outer loop
         vertex 2.000000e+01 1.000000e+01 1.000000e+01
         vertex 2.000000e+01 3.765102e+00 2.181685e+00
         vertex 2.000000e+01 4.679679e+00 1.532758e+00
      endloop
   endfacet
   facet normal 1.000000e+00 0.000000e+00 0.000000e+00
      outer loop
         vertex 2.000000e+01 1.000000e+01 1.000000e+01
         vertex 2.000000e+01 4.679679e+00 1.532758e+00
         vertex 2.000000e+01 5.661163e+00 9.903107e-01
      endloop
   endfacet
   facet normal 1.000000e+00 -0.000000e+00 0.000000e+00
      outer loop
         vertex 2.000000e+01 9.903107e-01 5.661163e+00
         vertex 2.000000e+01 1.532758e+00 4.679679e+00
         vertex 2.000000e+01 1.000000e+01 1.000000e+01
      endloop
   endfacet
   facet normal 1.000000e+00 0.000000e+00 0.000000e+00
      outer loop
         vertex 2.000000e+01 1.000000e+01 1.000000e+01
         vertex 2.000000e+01 1.532758e+00 4.679679e+00
         vertex 2.000000e+01 2.181685e+00 3.765102e+00
      endloop
   endfacet
   facet normal 1.000000e+00 0.000000e+00 0.000000e+00
      outer loop
         vertex 2.000000e+01 1.000000e+01 1.000000e+01
         vertex 2.000000e+01 2.181685e+00 3.765102e+00
         vertex 2.000000e+01 2.928932e+00 2.928932e+00
      endloop
   endfacet
   facet normal 1.000000e+00 -0.000000e+00 0.000000e+00
      outer loop
         vertex 2.000000e+01 6.287731e-02 8.880355e+00
         vertex 2.000000e+01 2.507204e-01 7.774791e+00
         vertex 2.000000e+01 1.000000e+01 1.000000e+01
      endloop
   endfacet
   facet normal 1.000000e+00 0.000000e+00 0.000000e+00
      outer loop
         vertex 2.000000e+01 1.000000e+01 1.000000e+01
         vertex 2.000000e+01 2.507204e-01 7.774791e+00
         vertex 2.000000e+01 5.611666e-01 6.697209e+00
      endloop
   endfacet
   facet normal 1.000000e+00 0.000000e+00 0.000000e+00
      outer loop
         vertex 2.000000e+01 1.000000e+01 1.000000e+01
         vertex 2.000000e+01 5.611666e-01 6.697209e+00
         vertex 2.000000e+01 9.903107e-01 5.661163e+00
      endloop
   endfacet
   facet normal 1.000000e+00 0.000000e+00 0.000000e+00
      outer loop
         vertex 2.000000e+01 2.507204e-01 1.222521e+01
         vertex 2.000000e+01 6.287731e-02 1.111964e+01
         vertex 2.000000e+01 1.000000e+01 1.000000e+01
      endloop
   endfacet
   facet normal 1.000000e+00 0.000000e+00 0.000000e+00
      outer loop
         vertex 2.000000e+01 1.000000e+01 1.000000e+01
         vertex 2.000000e+01 6.287731e-02 1.111964e+01
         vertex 2.000000e+01 0.000000e+00 1.000000e+01
      endloop
   endfacet
   facet normal 1.000000e+00 0.000000e+00 0.000000e+00
      outer loop
         vertex 2.000000e+01 1.000000e+01 1.000000e+01
         vertex 2.000000e+01 0.000000e+00 1.000000e+01
         vertex 2.000000e+01 6.287731e-02 8.880355e+00
      endloop
   endfacet
   facet normal 1.000000e+00 0.000000e+00 0.000000e+00
      outer loop
         vertex 2.000000e+01 1.532758e+00 1.532032e+01
         vertex 2.000000e+01 9.903107e-01 1.433884e+01
         vertex 2.000000e+01 1.000000e+01 1.000000e+01
      endloop
   endfacet
   facet normal 1.000000e+00 0.000000e+00 0.000000e+00
      outer loop
         vertex 2.000000e+01 1.000000e+01 1.000000e+01
         vertex 2.000000e+01 9.903107e-01 1.433884e+01
         vertex 2.000000e+01 5.611666e-01 1.330279e+01
      endloop
   endfacet
   facet normal 1.000000e+00 0.000000e+00 0.000000e+00
      outer loop
         vertex 2.000000e+01 1.000000e+01 1.000000e+01
         vertex 2.000000e+01 5.611666e-01 1.330279e+01
         vertex 2.000000e+01 2.507204e-01 1.222521e+01
      endloop
   endfacet
   facet normal 1.000000e+00 0.000000e+00 0.000000e+00
      outer loop
         vertex 2.000000e+01 3.765102e+00 1.781831e+01
         vertex 2.000000e+01 2.928932e+00 1.707107e+01
         vertex 2.000000e+01 1.000000e+01 1.000000e+01
      endloop
   endfacet
   facet normal 1.000000e+00 0.000000e+00 0.000000e+00
      outer loop
         vertex 2.000000e+01 1.000000e+01 1.000000e+01
         vertex 2.000000e+01 2.928932e+00 1.707107e+01
         vertex 2.000000e+01 2.181685e+00 1.623490e+01
      endloop
   endfacet
   facet normal 1.000000e+00 0.000000e+00 0.000000e+00
      outer loop
         vertex 2.000000e+01 1.000000e+01 1.000000e+01
         vertex 2.000000e+01 2.181685e+00 1.623490e+01
         vertex 2.000000e+01 1.532758e+00 1.532032e+01
      endloop
   endfacet
   facet normal 1.000000e+00 0.000000e+00 0.000000e+00
      outer loop
         vertex 2.000000e+01 6.697209e+00 1.943883e+01
         vertex 2.000000e+01 5.661163e+00 1.900969e+01
         vertex 2.000000e+01 1.000000e+01 1.000000e+01
      endloop
   endfacet
   facet normal 1.000000e+00 0.000000e+00 0.000000e+00
      outer loop
         vertex 2.000000e+01 1.000000e+01 1.000000e+01
         vertex 2.000000e+01 5.661163e+00 1.900969e+01
         vertex 2.000000e+01 4.679679e+00 1.846724e+01
      endloop
   endfacet
   facet normal 1.000000e+00 0.000000e+00 0.000000e+00
      outer loop
         vertex 2.000000e+01 1.000000e+01 1.000000e+01
         vertex 2.000000e+01 4.679679e+00 1.846724e+01
         vertex 2.000000e+01 3.765102e+00 1.781831e+01
      endloop
   endfacet
   facet normal 1.000000e+00 0.000000e+00 0.000000e+00
      outer loop
         vertex 2.000000e+01 1.000000e+01 2.000000e+01
         vertex 2.000000e+01 8.880355e+00 1.993712e+01
         vertex 2.000000e+01 1.000000e+01 1.000000e+01
      endloop
   endfacet
   facet normal 1.000000e+00 0.000000e+00 0.000000e+00
      outer loop
         vertex 2.000000e+01 1.000000e+01 1.000000e+01
         vertex 2.000000e+01 8.880355e+00 1.993712e+01
         vertex 2.000000e+01 7.774791e+00 1.974928e+01
      endloop
   endfacet
   facet normal 1.000000e+00 0.000000e+00 0.000000e+00
      outer loop
         vertex 2.000000e+01 1.000000e+01 1.000000e+01
         vertex 2.000000e+01 7.774791e+00 1.974928e+01
         vertex 2.000000e+01 6.697209e+00 1.943883e+01
      endloop
   endfacet
   facet normal 1.000000e+00 0.000000e+00 0.000000e+00
      outer loop
         vertex 2.000000e+01 1.330279e+01 1.943883e+01
         vertex 2.000000e+01 1.222521e+01 1.974928e+01
         vertex 2.000000e+01 1.000000e+01 1.000000e+01
      endloop
   endfacet
   facet normal 1.000000e+00 0.000000e+00 0.000000e+00
      outer loop
         vertex 2.000000e+01 1.000000e+01 1.000000e+01
         vertex 2.000000e+01 1.222521e+01 1.974928e+01
         vertex 2.000000e+01 1.111964e+01 1.993712e+01
      endloop
   endfacet
   facet normal 1.000000e+00 0.000000e+00 0.000000e+00
      outer loop
         vertex 2.000000e+01 1.000000e+01 1.000000e+01
         vertex 2.000000e+01 1.111964e+01 1.993712e+01
         vertex 2.000000e+01 1.000000e+01 2.000000e+01
      endloop
   endfacet
   facet normal 1.000000e+00 0.000000e+00 0.000000e+00
      outer loop
         vertex 2.000000e+01 1.623490e+01 1.781831e+01
         vertex 2.000000e+01 1.532032e+01 1.846724e+01
         vertex 2.000000e+01 1.000000e+01 1.000000e+01
      endloop
   endfacet
   facet normal 1.000000e+00 0.000000e+00 0.000000e+00
      outer loop
         vertex 2.000000e+01 1.000000e+01 1.000000e+01
         vertex 2.000000e+01 1.532032e+01 1.846724e+01
         vertex 2.000000e+01 1.433884e+01 1.900969e+01
      endloop
   endfacet
   facet normal 1.000000e+00 0.000000e+00 0.000000e+00
      outer loop
         vertex 2.000000e+01 1.000000e+01 1.000000e+01
         vertex 2.000000e+01 1.433884e+01 1.900969e+01
         vertex 2.000000e+01 1.330279e+01 1.943883e+01
      endloop
   endfacet
   facet normal 1.000000e+00 0.000000e+00 0.000000e+00
      outer loop
         vertex 2.000000e+01 1.846724e+01 1.532032e+01
         vertex 2.000000e+01 1.781831e+01 1.623490e+01
         vertex 2.000000e+01 1.000000e+01 1.000000e+01
      endloop
   endfacet
   facet normal 1.000000e+00 0.000000e+00 0.000000e+00
      outer loop
         vertex 2.000000e+01 1.000000e+01 1.000000e+01
         vertex 2.000000e+01 1.781831e+01 1.623490e+01
         vertex 2.000000e+01 1.707107e+01 1.707107e+01
      endloop
   endfacet
   facet normal 1.000000e+00 0.000000e+00 0.000000e+00
      outer loop
         vertex 2.000000e+01 1.000000e+01 1.000000e+01
         vertex 2.000000e+01 1.707107e+01 1.707107e+01
         vertex 2.000000e+01 1.623490e+01 1.781831e+01
      endloop
   endfacet
   facet normal 1.000000e+00 0.000000e+00 0.000000e+00
      outer loop
         vertex 2.000000e+01 1.974928e+01 1.222521e+01
         vertex 2.000000e+01 1.943883e+01 1.330279e+01
         vertex 2.000000e+01 1.000000e+01 1.000000e+01
      endloop
   endfacet
   facet normal 1.000000e+00 0.000000e+00 0.000000e+00
      outer loop
         vertex 2.000000e+01 1.000000e+01 1.000000e+01
         vertex 2.000000e+01 1.943883e+01 1.330279e+01
         vertex 2.000000e+01 1.900969e+01 1.433884e+01
      endloop
   endfacet
   facet normal 1.000000e+00 0.000000e+00 0.000000e+00
      outer loop
         vertex 2.000000e+01 1.000000e+01 1.000000e+01
         vertex 2.000000e+01 1.900969e+01 1.433884e+01
         vertex 2.000000e+01 1.846724e+01 1.532032e+01
      endloop
   endfacet
   facet normal 1.000000e+00 0.000000e+00 -0.000000e+00
      outer loop
         vertex 2.000000e+01 1.993712e+01 8.880355e+00
         vertex 2.000000e+01 2.000000e+01 1.000000e+01
         vertex 2.000000e+01 1.000000e+01 1.000000e+01
      endloop
   endfacet
   facet normal 1.000000e+00 0.000000e+00 0.000000e+00
      outer loop
         vertex 2.000000e+01 1.000000e+01 1.000000e+01
         vertex 2.000000e+01 2.000000e+01 1.000000e+01
         vertex 2.000000e+01 1.993712e+01 1.111964e+01
      endloop
   endfacet
   facet normal 1.000000e+00 0.000000e+00 0.000000e+00
      outer loop
         vertex 2.000000e+01 1.000000e+01 1.000000e+01
         vertex 2.000000e+01 1.993712e+01 1.111964e+01
         vertex 2.000000e+01 1.974928e+01 1.222521e+01
      endloop
   endfacet
   facet normal 1.000000e+00 0.000000e+00 -0.000000e+00
      outer loop
         vertex 2.000000e+01 1.900969e+01 5.661163e+00
         vertex 2.000000e+01 1.943883e+01 6.697209e+00
         vertex 2.000000e+01 1.000000e+01 1.000000e+01
      endloop
   endfacet
   facet normal 1.000000e+00 0.000000e+00 0.000000e+00
      outer loop
         vertex 2.000000e+01 1.000000e+01 1.000000e+01
         vertex 2.000000e+01 1.943883e+01 6.697209e+00
         vertex 2.000000e+01 1.974928e+01 7.774791e+00
      endloop
   endfacet
   facet normal 1.000000e+00 0.000000e+00 0.000000e+00
      outer loop
         vertex 2.000000e+01 1.000000e+01 1.000000e+01
         vertex 2.000000e+01 1.974928e+01 7.774791e+00
         vertex 2.000000e+01 1.993712e+01 8.880355e+00
      endloop
   endfacet
   facet normal 1.000000e+00 0.000000e+00 -0.000000e+00
      outer loop
         vertex 2.000000e+01 1.707107e+01 2.928932e+00
         vertex 2.000000e+01 1.781831e+01 3.765102e+00
         vertex 2.000000e+01 1.000000e+01 1.000000e+01
      endloop
   endfacet
   facet normal 1.000000e+00 0.000000e+00 0.000000e+00
      outer loop
         vertex 2.000000e+01 1.000000e+01 1.000000e+01
         vertex 2.000000e+01 1.781831e+01 3.765102e+00
         vertex 2.000000e+01 1.846724e+01 4.679679e+00
      endloop
   endfacet
   facet normal 1.000000e+00 0.000000e+00 0.000000e+00
      outer loop
         vertex 2.000000e+01 1.000000e+01 1.000000e+01
         vertex 2.000000e+01 1.846724e+01 4.679679e+00
         vertex 2.000000e+01 1.900969e+01 5.661163e+00
      endloop
   endfacet
   facet normal 1.000000e+00 0.000000e+00 -0.000000e+00
      outer loop
         vertex 2.000000e+01 1.433884e+01 9.903107e-01
         vertex 2.000000e+01 1.532032e+01 1.532758e+00
         vertex 2.000000e+01 1.000000e+01 1.000000e+01
      endloop
   endfacet
   facet normal 1.000000e+00 0.000000e+00 0.000000e+00
      outer loop
         vertex 2.000000e+01 1.000000e+01 1.000000e+01
         vertex 2.000000e+01 1.532032e+01 1.532758e+00
         vertex 2.000000e+01 1.623490e+01 2.181685e+00
      endloop
   endfacet
   facet normal 1.000000e+00 0.000000e+00 0.000000e+00
      outer loop
         vertex 2.000000e+01 1.000000e+01 1.000000e+01
         vertex 2.000000e+01 1.623490e+01 2.181685e+00
         vertex 2.000000e+01 1.707107e+01 2.928932e+00
      endloop
   endfacet
   facet normal 1.000000e+00 0.000000e+00 -0.000000e+00
      outer loop
         vertex 2.000000e+01 1.111964e+01 6.287731e-02
         vertex 2.000000e+01 1.222521e+01 2.507204e-01
         vertex 2.000000e+01 1.000000e+01 1.000000e+01
      endloop
   endfacet
   facet normal 1.000000e+00 0.000000e+00 0.000000e+00
      outer loop
         vertex 2.000000e+01 1.000000e+01 1.000000e+01
         vertex 2.000000e+01 1.222521e+01 2.507204e-01
         vertex 2.000000e+01 1.330279e+01 5.611666e-01
      endloop
   endfacet
   facet normal 1.000000e+00 0.000000e+00 0.000000e+00
      outer loop
         vertex 2.000000e+01 1.000000e+01 1.000000e+01
         vertex 2.000000e+01 1.330279e+01 5.611666e-01
         vertex 2.000000e+01 1.433884e+01 9.903107e-01
      endloop
   endfacet
   facet normal -1.000000e+00 0.000000e+00 0.000000e+00
      outer loop
         vertex 0.000000e+00 1.000000e+01 0.000000e+00
         vertex 0.000000e+00 8.880355e+00 6.287731e-02
         vertex 0.000000e+00 1.000000e+01 1.000000e+01
      endloop
   endfacet
   facet normal -1.000000e+00 0.000000e+00 0.000000e+00
      outer loop
         vertex 0.000000e+00 1.000000e+01 0.000000e+00
         vertex 0.000000e+00 1.000000e+01 1.000000e+01
         vertex 0.000000e+00 1.111964e+01 6.287731e-02
      endloop
   endfacet
   facet normal -1.000000e+00 -0.000000e+00 0.000000e+00
      outer loop
         vertex 0.000000e+00 1.433884e+01 9.903107e-01
         vertex 0.000000e+00 1.330279e+01 5.611666e-01
         vertex 0.000000e+00 1.000000e+01 1.000000e+01
      endloop
   endfacet
   facet normal -1.000000e+00 0.000000e+00 0.000000e+00
      outer loop
         vertex 0.000000e+00 1.000000e+01 1.000000e+01
         vertex 0.000000e+00 1.330279e+01 5.611666e-01
         vertex 0.000000e+00 1.222521e+01 2.507204e-01
      endloop
   endfacet
   facet normal -1.000000e+00 0.000000e+00 0.000000e+00
      outer loop
         vertex 0.000000e+00 1.000000e+01 1.000000e+01
         vertex 0.000000e+00 1.222521e+01 2.507204e-01
         vertex 0.000000e+00 1.111964e+01 6.287731e-02
      endloop
   endfacet
   facet normal -1.000000e+00 -0.000000e+00 0.000000e+00
      outer loop
         vertex 0.000000e+00 1.707107e+01 2.928932e+00
         vertex 0.000000e+00 1.623490e+01 2.181685e+00
         vertex 0.000000e+00 1.000000e+01 1.000000e+01
      endloop
   endfacet
   facet normal -1.000000e+00 0.000000e+00 0.000000e+00
      outer loop
         vertex 0.000000e+00 1.000000e+01 1.000000e+01
         vertex 0.000000e+00 1.623490e+01 2.181685e+00
         vertex 0.000000e+00 1.532032e+01 1.532758e+00
      endloop
   endfacet
   facet normal -1.000000e+00 0.000000e+00 0.000000e+00
      outer loop
         vertex 0.000000e+00 1.000000e+01 1.000000e+01
         vertex 0.000000e+00 1.532032e+01 1.532758e+00
         vertex 0.000000e+00 1.433884e+01 9.903107e-01
      endloop
   endfacet
   facet normal -1.000000e+00 -0.000000e+00 0.000000e+00
      outer loop
         vertex 0.000000e+00 1.900969e+01 5.661163e+00
         vertex 0.000000e+00 1.846724e+01 4.679679e+00
         vertex 0.000000e+00 1.000000e+01 1.000000e+01
      endloop
   endfacet
   facet normal -1.000000e+00 0.000000e+00 0.000000e+00
      outer loop
         vertex 0.000000e+00 1.000000e+01 1.000000e+01
         vertex 0.000000e+00 1.846724e+01 4.679679e+00
         vertex 0.000000e+00 1.781831e+01 3.765102e+00
      endloop
   endfacet
   facet normal -1.000000e+00 0.000000e+00 0.000000e+00
      outer loop
         vertex 0.000000e+00 1.000000e+01 1.000000e+01
         vertex 0.000000e+00 1.781831e+01 3.765102e+00
         vertex 0.000000e+00 1.707107e+01 2.928932e+00
      endloop
   endfacet
   facet normal -1.000000e+00 -0.000000e+00 0.000000e+00
      outer loop
         vertex 0.000000e+00 1.993712e+01 8.880355e+00
         vertex 0.000000e+00 1.974928e+01 7.774791e+00
         vertex 0.000000e+00 1.000000e+01 1.000000e+01
      endloop
   endfacet
   facet normal -1.000000e+00 0.000000e+00 0.000000e+00
      outer loop
         vertex 0.000000e+00 1.000000e+01 1.000000e+01
         vertex 0.000000e+00 1.974928e+01 7.774791e+00
         vertex 0.000000e+00 1.943883e+01 6.697209e+00
      endloop
   endfacet
   facet normal -1.000000e+00 0.000000e+00 0.000000e+00
      outer loop
         vertex 0.000000e+00 1.000000e+01 1.000000e+01
         vertex 0.000000e+00 1.943883e+01 6.697209e+00
         vertex 0.000000e+00 1.900969e+01 5.661163e+00
      endloop
   endfacet
   facet normal -1.000000e+00 0.000000e+00 -0.000000e+00
      outer loop
         vertex 0.000000e+00 1.974928e+01 1.222521e+01
         vertex 0.000000e+00 1.993712e+01 1.111964e+01
         vertex 0.000000e+00 1.000000e+01 1.000000e+01
      endloop
   endfacet
   facet normal -1.000000e+00 0.000000e+00 0.000000e+00
      outer loop
         vertex 0.000000e+00 1.000000e+01 1.000000e+01
         vertex 0.000000e+00 1.993712e+01 1.111964e+01
         vertex 0.000000e+00 2.000000e+01 1.000000e+01
      endloop
   endfacet
   facet normal -1.000000e+00 0.000000e+00 0.000000e+00
      outer loop
         vertex 0.000000e+00 1.000000e+01 1.000000e+01
         vertex 0.000000e+00 2.000000e+01 1.000000e+01
         vertex 0.000000e+00 1.993712e+01 8.880355e+00
      endloop
   endfacet
   facet normal -1.000000e+00 0.000000e+00 -0.000000e+00
      outer loop
         vertex 0.000000e+00 1.846724e+01 1.532032e+01
         vertex 0.000000e+00 1.900969e+01 1.433884e+01
         vertex 0.000000e+00 1.000000e+01 1.000000e+01
      endloop
   endfacet
   facet normal -1.000000e+00 0.000000e+00 0.000000e+00
      outer loop
         vertex 0.000000e+00 1.000000e+01 1.000000e+01
         vertex 0.000000e+00 1.900969e+01 1.433884e+01
         vertex 0.000000e+00 1.943883e+01 1.330279e+01
      endloop
   endfacet
   facet normal -1.000000e+00 0.000000e+00 0.000000e+00
      outer loop
         vertex 0.000000e+00 1.000000e+01 1.000000e+01
         vertex 0.000000e+00 1.943883e+01 1.330279e+01
         vertex 0.000000e+00 1.974928e+01 1.222521e+01
      endloop
   endfacet
   facet normal -1.000000e+00 0.000000e+00 -0.000000e+00
      outer loop
         vertex 0.000000e+00 1.623490e+01 1.781831e+01
         vertex 0.000000e+00 1.707107e+01 1.707107e+01
         vertex 0.000000e+00 1.000000e+01 1.000000e+01
      endloop
   endfacet
   facet normal -1.000000e+00 0.000000e+00 0.000000e+00
      outer loop
         vertex 0.000000e+00 1.000000e+01 1.000000e+01
         vertex 0.000000e+00 1.707107e+01 1.707107e+01
         vertex 0.000000e+00 1.781831e+01 1.623490e+01
      endloop
   endfacet
   facet normal -1.000000e+00 0.000000e+00 0.000000e+00
      outer loop
         vertex 0.000000e+00 1.000000e+01 1.000000e+01
         vertex 0.000000e+00 1.781831e+01 1.623490e+01
         vertex 0.000000e+00 1.846724e+01 1.532032e+01
      endloop
   endfacet
   facet normal -1.000000e+00 0.000000e+00 -0.000000e+00
      outer loop
         vertex 0.000000e+00 1.330279e+01 1.943883e+01
         vertex 0.000000e+00 1.433884e+01 1.900969e+01
         vertex 0.000000e+00 1.000000e+01 1.000000e+01
      endloop
   endfacet
   facet normal -1.000000e+00 0.000000e+00 0.000000e+00
      outer loop
         vertex 0.000000e+00 1.000000e+01 1.000000e+01
         vertex 0.000000e+00 1.433884e+01 1.900969e+01
         vertex 0.000000e+00 1.532032e+01 1.846724e+01
      endloop
   endfacet
   facet normal -1.000000e+00 0.000000e+00 0.000000e+00
      outer loop
         vertex 0.000000e+00 1.000000e+01 1.000000e+01
         vertex 0.000000e+00 1.532032e+01 1.846724e+01
         vertex 0.000000e+00 1.623490e+01 1.781831e+01
      endloop
   endfacet
   facet normal -1.000000e+00 0.000000e+00 0.000000e+00
      outer loop
         vertex 0.000000e+00 1.000000e+01 2.000000e+01
         vertex 0.000000e+00 1.111964e+01 1.993712e+01
         vertex 0.000000e+00 1.000000e+01 1.000000e+01
      endloop
   endfacet
   facet normal -1.000000e+00 0.000000e+00 0.000000e+00
      outer loop
         vertex 0.000000e+00 1.000000e+01 1.000000e+01
         vertex 0.000000e+00 1.111964e+01 1.993712e+01
         vertex 0.000000e+00 1.222521e+01 1.974928e+01
      endloop
   endfacet
   facet normal -1.000000e+00 0.000000e+00 0.000000e+00
      outer loop
         vertex 0.000000e+00 1.000000e+01 1.000000e+01
         vertex 0.000000e+00 1.222521e+01 1.974928e+01
         vertex 0.000000e+00 1.330279e+01 1.943883e+01
      endloop
   endfacet
   facet normal -1.000000e+00 0.000000e+00 0.000000e+00
      outer loop
         vertex 0.000000e+00 6.697209e+00 1.943883e+01
         vertex 0.000000e+00 7.774791e+00 1.974928e+01
         vertex 0.000000e+00 1.000000e+01 1.000000e+01
      endloop
   endfacet
   facet normal -1.000000e+00 0.000000e+00 0.000000e+00
      outer loop
         vertex 0.000000e+00 1.000000e+01 1.000000e+01
         vertex 0.000000e+00 7.774791e+00 1.974928e+01
         vertex 0.000000e+00 8.880355e+00 1.993712e+01
      endloop
   endfacet
   facet normal -1.000000e+00 0.000000e+00 0.000000e+00
      outer loop
         vertex 0.000000e+00 1.000000e+01 1.000000e+01
         vertex 0.000000e+00 8.880355e+00 1.993712e+01
         vertex 0.000000e+00 1.000000e+01 2.000000e+01
      endloop
   endfacet
   facet normal -1.000000e+00 0.000000e+00 0.000000e+00
      outer loop
         vertex 0.000000e+00 3.765102e+00 1.781831e+01
         vertex 0.000000e+00 4.679679e+00 1.846724e+01
         vertex 0.000000e+00 1.000000e+01 1.000000e+01
      endloop
   endfacet
   facet normal -1.000000e+00 0.000000e+00 0.000000e+00
      outer loop
         vertex 0.000000e+00 1.000000e+01 1.000000e+01
         vertex 0.000000e+00 4.679679e+00 1.846724e+01
         vertex 0.000000e+00 5.661163e+00 1.900969e+01
      endloop
   endfacet
   facet normal -1.000000e+00 0.000000e+00 0.000000e+00
      outer loop
         vertex 0.000000e+00 1.000000e+01 1.000000e+01
         vertex 0.000000e+00 5.661163e+00 1.900969e+01
         vertex 0.000000e+00 6.697209e+00 1.943883e+01
      endloop
   endfacet
   facet normal -1.000000e+00 0.000000e+00 0.000000e+00
      outer loop
         vertex 0.000000e+00 1.532758e+00 1.532032e+01
         vertex 0.000000e+00 2.181685e+00 1.623490e+01
         vertex 0.000000e+00 1.000000e+01 1.000000e+01
      endloop
   endfacet
   facet normal -1.000000e+00 0.000000e+00 0.000000e+00
      outer loop
         vertex 0.000000e+00 1.000000e+01 1.000000e+01
         vertex 0.000000e+00 2.181685e+00 1.623490e+01
         vertex 0.000000e+00 2.928932e+00 1.707107e+01
      endloop
   endfacet
   facet normal -1.000000e+00 0.000000e+00 0.000000e+00
      outer loop
         vertex 0.000000e+00 1.000000e+01 1.000000e+01
         vertex 0.000000e+00 2.928932e+00 1.707107e+01
         vertex 0.000000e+00 3.765102e+00 1.781831e+01
      endloop
   endfacet
   facet normal -1.000000e+00 0.000000e+00 0.000000e+00
      outer loop
         vertex 0.000000e+00 2.507204e-01 1.222521e+01
         vertex 0.000000e+00 5.611666e-01 1.330279e+01
         vertex 0.000000e+00 1.000000e+01 1.000000e+01
      endloop
   endfacet
   facet normal -1.000000e+00 0.000000e+00 0.000000e+00
      outer loop
         vertex 0.000000e+00 1.000000e+01 1.000000e+01
         vertex 0.000000e+00 5.611666e-01 1.330279e+01
         vertex 0.000000e+00 9.903107e-01 1.433884e+01
      endloop
   endfacet
   facet normal -1.000000e+00 0.000000e+00 0.000000e+00
      outer loop
         vertex 0.000000e+00 1.000000e+01 1.000000e+01
         vertex 0.000000e+00 9.903107e-01 1.433884e+01
         vertex 0.000000e+00 1.532758e+00 1.532032e+01
      endloop
   endfacet
   facet normal -1.000000e+00 0.000000e+00 0.000000e+00
      outer loop
         vertex 0.000000e+00 6.287731e-02 8.880355e+00
         vertex 0.000000e+00 0.000000e+00 1.000000e+01
         vertex 0.000000e+00 1.000000e+01 1.000000e+01
      endloop
   endfacet
   facet normal -1.000000e+00 -0.000000e+00 0.000000e+00
      outer loop
         vertex 0.000000e+00 1.000000e+01 1.000000e+01
         vertex 0.000000e+00 0.000000e+00 1.000000e+01
         vertex 0.000000e+00 6.287731e-02 1.111964e+01
      endloop
   endfacet
   facet normal -1.000000e+00 0.000000e+00 0.000000e+00
      outer loop
         vertex 0.000000e+00 1.000000e+01 1.000000e+01
         vertex 0.000000e+00 6.287731e-02 1.111964e+01
         vertex 0.000000e+00 2.507204e-01 1.222521e+01
      endloop
   endfacet
   facet normal -1.000000e+00 0.000000e+00 0.000000e+00
      outer loop
         vertex 0.000000e+00 9.903107e-01 5.661163e+00
         vertex 0.000000e+00 5.611666e-01 6.697209e+00
         vertex 0.000000e+00 1.000000e+01 1.000000e+01
      endloop
   endfacet
   facet normal -1.000000e+00 0.000000e+00 0.000000e+00
      outer loop
         vertex 0.000000e+00 1.000000e+01 1.000000e+01
         vertex 0.000000e+00 5.611666e-01 6.697209e+00
         vertex 0.000000e+00 2.507204e-01 7.774791e+00
      endloop
   endfacet
   facet normal -1.000000e+00 0.000000e+00 0.000000e+00
      outer loop
         vertex 0.000000e+00 1.000000e+01 1.000000e+01
         vertex 0.000000e+00 2.507204e-01 7.774791e+00
         vertex 0.000000e+00 6.287731e-02 8.880355e+00
      endloop
   endfacet
   facet normal -1.000000e+00 0.000000e+00 0.000000e+00
      outer loop
         vertex 0.000000e+00 2.928932e+00 2.928932e+00
         vertex 0.000000e+00 2.181685e+00 3.765102e+00
         vertex 0.000000e+00 1.000000e+01 1.000000e+01
      endloop
   endfacet
   facet normal -1.000000e+00 0.000000e+00 0.000000e+00
      outer loop
         vertex 0.000000e+00 1.000000e+01 1.000000e+01
         vertex 0.000000e+00 2.181685e+00 3.765102e+00
         vertex 0.000000e+00 1.532758e+00 4.679679e+00
      endloop
   endfacet
   facet normal -1.000000e+00 0.000000e+00 0.000000e+00
      outer loop
         vertex 0.000000e+00 1.000000e+01 1.000000e+01
         vertex 0.000000e+00 1.532758e+00 4.679679e+00
         vertex 0.000000e+00 9.903107e-01 5.661163e+00
      endloop
   endfacet
   facet normal -1.000000e+00 0.000000e+00 0.000000e+00
      outer loop
         vertex 0.000000e+00 5.661163e+00 9.903107e-01
         vertex 0.000000e+00 4.679679e+00 1.532758e+00
         vertex 0.000000e+00 1.000000e+01 1.000000e+01
      endloop
   endfacet
   facet normal -1.000000e+00 0.000000e+00 0.000000e+00
      outer loop
         vertex 0.000000e+00 1.000000e+01 1.000000e+01
         vertex 0.000000e+00 4.679679e+00 1.532758e+00
         vertex 0.000000e+00 3.765102e+00 2.181685e+00
      endloop
   endfacet
   facet normal -1.000000e+00 0.000000e+00 0.000000e+00
      outer loop
         vertex 0.000000e+00 1.000000e+01 1.000000e+01
         vertex 0.000000e+00 3.765102e+00 2.181685e+00
         vertex 0.000000e+00 2.928932e+00 2.928932e+00
      endloop
   endfacet
   facet normal -1.000000e+00 0.000000e+00 0.000000e+00
      outer loop
         vertex 0.000000e+00 8.880355e+00 6.287731e-02
         vertex 0.000000e+00 7.774791e+00 2.507204e-01
         vertex 0.000000e+00 1.000000e+01 1.000000e+01
      endloop
   endfacet
   facet normal -1.000000e+00 0.000000e+00 0.000000e+00
      outer loop
         vertex 0.000000e+00 1.000000e+01 1.000000e+01
         vertex 0.000000e+00 7.774791e+00 2.507204e-01
         vertex 0.000000e+00 6.697209e+00 5.611666e-01
      endloop
   endfacet
   facet normal -1.000000e+00 0.000000e+00 0.000000e+00
      outer loop
         vertex 0.000000e+00 1.000000e+01 1.000000e+01
         vertex 0.000000e+00 6.697209e+00 5.611666e-01
         vertex 0.000000e+00 5.661163e+00 9.903107e-01
      endloop
   endfacet
endsolid Hub