solid Blade
   facet normal 0.000000e+00 -0.000000e+00 1.000000e+00
      outer loop
         vertex 1.000000e+00 1.734723e-15 2.000000e+01
         vertex 1.000000e+00 5.000000e+01 2.000000e+01
         vertex 0.000000e+00 1.734723e-15 2.000000e+01
      endloop
   endfacet
   facet normal 0.000000e+00 0.000000e+00 1.000000e+00
      outer loop
         vertex 0.000000e+00 1.734723e-15 2.000000e+01
         vertex 1.000000e+00 5.000000e+01 2.000000e+01
         vertex 0.000000e+00 5.000000e+01 2.000000e+01
      endloop
   endfacet
   facet normal 0.000000e+00 -1.000000e+00 0.000000e+00
      outer loop
         vertex 1.000000e+00 1.734723e-15 0.000000e+00
         vertex 1.000000e+00 1.734723e-15 2.000000e+01
         vertex 0.000000e+00 1.734723e-15 0.000000e+00
      endloop
   endfacet
   facet normal 0.000000e+00 -1.000000e+00 0.000000e+00
      outer loop
         vertex 0.000000e+00 1.734723e-15 0.000000e+00
         vertex 1.000000e+00 1.734723e-15 2.000000e+01
         vertex 0.000000e+00 1.734723e-15 2.000000e+01
      endloop
   endfacet
   facet normal -0.000000e+00 -0.000000e+00 -1.000000e+00
      outer loop
         vertex 1.000000e+00 5.000000e+01 0.000000e+00
         vertex 1.000000e+00 1.734723e-15 0.000000e+00
         vertex 0.000000e+00 5.000000e+01 0.000000e+00
      endloop
   endfacet
   facet normal 0.000000e+00 0.000000e+00 -1.000000e+00
      outer loop
         vertex 0.000000e+00 5.000000e+01 0.000000e+00
         vertex 1.000000e+00 1.734723e-15 0.000000e+00
         vertex 0.000000e+00 1.734723e-15 0.000000e+00
      endloop
   endfacet
   facet normal 0.000000e+00 1.000000e+00 0.000000e+00
      outer loop
         vertex 1.000000e+00 5.000000e+01 2.000000e+01
         vertex 1.000000e+00 5.000000e+01 0.000000e+00
         vertex 0.000000e+00 5.000000e+01 2.000000e+01
      endloop
   endfacet
   facet normal 0.000000e+00 1.000000e+00 0.000000e+00
      outer loop
         vertex 0.000000e+00 5.000000e+01 2.000000e+01
         vertex 1.000000e+00 5.000000e+01 0.000000e+00
         vertex 0.000000e+00 5.000000e+01 0.000000e+00
      endloop
   endfacet
   facet normal 1.000000e+00 0.000000e+00 0.000000e+00
      outer loop
         vertex 1.000000e+00 1.734723e-15 0.000000e+00
         vertex 1.000000e+00 5.000000e+01 0.000000e+00
         vertex 1.000000e+00 1.734723e-15 2.000000e+01
      endloop
   endfacet
   facet normal 1.000000e+00 -0.000000e+00 0.000000e+00
      outer loop
         vertex 1.000000e+00 1.734723e-15 2.000000e+01
         vertex 1.000000e+00 5.000000e+01 0.000000e+00
         vertex 1.000000e+00 5.000000e+01 2.000000e+01
      endloop
   endfacet
   facet normal -1.000000e+00 0.000000e+00 0.000000e+00
      outer loop
         vertex 0.000000e+00 5.000000e+01 0.000000e+00
         vertex 0.000000e+00 1.734723e-15 0.000000e+00
         vertex 0.000000e+00 5.000000e+01 2.000000e+01
      endloop
   endfacet
   facet normal -1.000000e+00 -0.000000e+00 0.000000e+00
      outer loop
         vertex 0.000000e+00 5.000000e+01 2.000000e+01
         vertex 0.000000e+00 1.734723e-15 0.000000e+00
         vertex 0.000000e+00 1.734723e-15 2.000000e+01
      endloop
   endfacet
endsolid Blade