solid Blade
 facet normal 0 -0 1
  outer loop
   vertex 0.5 5 10
   vertex 0.5 55 10
   vertex -0.5 5 10
  endloop
 endfacet
 facet normal 0 0 1
  outer loop
   vertex -0.5 5 10
   vertex 0.5 55 10
   vertex -0.5 55 10
  endloop
 endfacet
 facet normal 0 -1 0
  outer loop
   vertex 0.5 5 -10
   vertex 0.5 5 10
   vertex -0.5 5 -10
  endloop
 endfacet
 facet normal 0 -1 0
  outer loop
   vertex -0.5 5 -10
   vertex 0.5 5 10
   vertex -0.5 5 10
  endloop
 endfacet
 facet normal -0 -0 -1
  outer loop
   vertex 0.5 55 -10
   vertex 0.5 5 -10
   vertex -0.5 55 -10
  endloop
 endfacet
 facet normal 0 0 -1
  outer loop
   vertex -0.5 55 -10
   vertex 0.5 5 -10
   vertex -0.5 5 -10
  endloop
 endfacet
 facet normal 0 1 0
  outer loop
   vertex 0.5 55 10
   vertex 0.5 55 -10
   vertex -0.5 55 10
  endloop
 endfacet
 facet normal 0 1 0
  outer loop
   vertex -0.5 55 10
   vertex 0.5 55 -10
   vertex -0.5 55 -10
  endloop
 endfacet
 facet normal 1 0 0
  outer loop
   vertex 0.5 5 -10
   vertex 0.5 55 -10
   vertex 0.5 5 10
  endloop
 endfacet
 facet normal 1 -0 0
  outer loop
   vertex 0.5 5 10
   vertex 0.5 55 -10
   vertex 0.5 55 10
  endloop
 endfacet
 facet normal -1 0 0
  outer loop
   vertex -0.5 55 -10
   vertex -0.5 5 -10
   vertex -0.5 55 10
  endloop
 endfacet
 facet normal -1 -0 0
  outer loop
   vertex -0.5 55 10
   vertex -0.5 5 -10
   vertex -0.5 5 10
  endloop
 endfacet
endsolid Blade
