solid Blade
 facet normal 0.707107 -0 0.707107
  outer loop
   vertex 7.42462 5 6.71751
   vertex 7.42462 55 6.71751
   vertex 6.71751 5 7.42462
  endloop
 endfacet
 facet normal 0.707107 -0 0.707107
  outer loop
   vertex 6.71751 5 7.42462
   vertex 7.42462 55 6.71751
   vertex 6.71751 55 7.42462
  endloop
 endfacet
 facet normal 0 -1 0
  outer loop
   vertex -6.71751 5 -7.42462
   vertex 7.42462 5 6.71751
   vertex -7.42462 5 -6.71751
  endloop
 endfacet
 facet normal 0 -1 0
  outer loop
   vertex -7.42462 5 -6.71751
   vertex 7.42462 5 6.71751
   vertex 6.71751 5 7.42462
  endloop
 endfacet
 facet normal -0.707107 -0 -0.707107
  outer loop
   vertex -6.71751 55 -7.42462
   vertex -6.71751 5 -7.42462
   vertex -7.42462 55 -6.71751
  endloop
 endfacet
 facet normal -0.707107 -0 -0.707107
  outer loop
   vertex -7.42462 55 -6.71751
   vertex -6.71751 5 -7.42462
   vertex -7.42462 5 -6.71751
  endloop
 endfacet
 facet normal 0 1 0
  outer loop
   vertex 7.42462 55 6.71751
   vertex -6.71751 55 -7.42462
   vertex 6.71751 55 7.42462
  endloop
 endfacet
 facet normal 0 1 0
  outer loop
   vertex 6.71751 55 7.42462
   vertex -6.71751 55 -7.42462
   vertex -7.42462 55 -6.71751
  endloop
 endfacet
 facet normal 0.707107 0 -0.707107
  outer loop
   vertex -6.71751 5 -7.42462
   vertex -6.71751 55 -7.42462
   vertex 7.42462 5 6.71751
  endloop
 endfacet
 facet normal 0.707107 0 -0.707107
  outer loop
   vertex 7.42462 5 6.71751
   vertex -6.71751 55 -7.42462
   vertex 7.42462 55 6.71751
  endloop
 endfacet
 facet normal -0.707107 0 0.707107
  outer loop
   vertex -7.42462 55 -6.71751
   vertex -7.42462 5 -6.71751
   vertex 6.71751 55 7.42462
  endloop
 endfacet
 facet normal -0.707107 0 0.707107
  outer loop
   vertex 6.71751 55 7.42462
   vertex -7.42462 5 -6.71751
   vertex 6.71751 5 7.42462
  endloop
 endfacet
endsolid Blade
