solid Blade
 facet normal 0.707107 0.612372 -0.353553
  outer loop
   vertex 7.42462 3.31753 -7.68888
   vertex 7.42462 -21.6825 -50.9902
   vertex 6.71751 3.92991 -8.04244
  endloop
 endfacet
 facet normal 0.707107 0.612372 -0.353553
  outer loop
   vertex 6.71751 3.92991 -8.04244
   vertex 7.42462 -21.6825 -50.9902
   vertex 6.71751 -21.0701 -51.3437
  endloop
 endfacet
 facet normal 1.33226e-16 0.5 0.866025
  outer loop
   vertex -6.71751 -8.92991 -0.617817
   vertex 7.42462 3.31753 -7.68888
   vertex -7.42462 -8.31753 -0.971372
  endloop
 endfacet
 facet normal 7.1054e-16 0.5 0.866025
  outer loop
   vertex -7.42462 -8.31753 -0.971372
   vertex 7.42462 3.31753 -7.68888
   vertex 6.71751 3.92991 -8.04244
  endloop
 endfacet
 facet normal -0.707107 -0.612372 0.353553
  outer loop
   vertex -6.71751 -33.9299 -43.9191
   vertex -6.71751 -8.92991 -0.617817
   vertex -7.42462 -33.3175 -44.2726
  endloop
 endfacet
 facet normal -0.707107 -0.612372 0.353553
  outer loop
   vertex -7.42462 -33.3175 -44.2726
   vertex -6.71751 -8.92991 -0.617817
   vertex -7.42462 -8.31753 -0.971372
  endloop
 endfacet
 facet normal -1.77635e-16 -0.5 -0.866025
  outer loop
   vertex 7.42462 -21.6825 -50.9902
   vertex -6.71751 -33.9299 -43.9191
   vertex 6.71751 -21.0701 -51.3437
  endloop
 endfacet
 facet normal -2.84216e-15 -0.5 -0.866025
  outer loop
   vertex 6.71751 -21.0701 -51.3437
   vertex -6.71751 -33.9299 -43.9191
   vertex -7.42462 -33.3175 -44.2726
  endloop
 endfacet
 facet normal 0.707107 -0.612372 0.353553
  outer loop
   vertex -6.71751 -8.92991 -0.617817
   vertex -6.71751 -33.9299 -43.9191
   vertex 7.42462 3.31753 -7.68888
  endloop
 endfacet
 facet normal 0.707107 -0.612372 0.353553
  outer loop
   vertex 7.42462 3.31753 -7.68888
   vertex -6.71751 -33.9299 -43.9191
   vertex 7.42462 -21.6825 -50.9902
  endloop
 endfacet
 facet normal -0.707107 0.612372 -0.353553
  outer loop
   vertex -7.42462 -33.3175 -44.2726
   vertex -7.42462 -8.31753 -0.971372
   vertex 6.71751 -21.0701 -51.3437
  endloop
 endfacet
 facet normal -0.707107 0.612372 -0.353553
  outer loop
   vertex 6.71751 -21.0701 -51.3437
   vertex -7.42462 -8.31753 -0.971372
   vertex 6.71751 3.92991 -8.04244
  endloop
 endfacet
endsolid Blade
