solid Blade
 facet normal 0 -0 1
  outer loop
   vertex 0.5 1.73472e-15 10
   vertex 0.5 50 10
   vertex -0.5 1.73472e-15 10
  endloop
 endfacet
 facet normal 0 0 1
  outer loop
   vertex -0.5 1.73472e-15 10
   vertex 0.5 50 10
   vertex -0.5 50 10
  endloop
 endfacet
 facet normal 0 -1 0
  outer loop
   vertex 0.5 1.73472e-15 -10
   vertex 0.5 1.73472e-15 10
   vertex -0.5 1.73472e-15 -10
  endloop
 endfacet
 facet normal 0 -1 0
  outer loop
   vertex -0.5 1.73472e-15 -10
   vertex 0.5 1.73472e-15 10
   vertex -0.5 1.73472e-15 10
  endloop
 endfacet
 facet normal -0 -0 -1
  outer loop
   vertex 0.5 50 -10
   vertex 0.5 1.73472e-15 -10
   vertex -0.5 50 -10
  endloop
 endfacet
 facet normal 0 0 -1
  outer loop
   vertex -0.5 50 -10
   vertex 0.5 1.73472e-15 -10
   vertex -0.5 1.73472e-15 -10
  endloop
 endfacet
 facet normal 0 1 0
  outer loop
   vertex 0.5 50 10
   vertex 0.5 50 -10
   vertex -0.5 50 10
  endloop
 endfacet
 facet normal 0 1 0
  outer loop
   vertex -0.5 50 10
   vertex 0.5 50 -10
   vertex -0.5 50 -10
  endloop
 endfacet
 facet normal 1 0 0
  outer loop
   vertex 0.5 1.73472e-15 -10
   vertex 0.5 50 -10
   vertex 0.5 1.73472e-15 10
  endloop
 endfacet
 facet normal 1 -0 0
  outer loop
   vertex 0.5 1.73472e-15 10
   vertex 0.5 50 -10
   vertex 0.5 50 10
  endloop
 endfacet
 facet normal -1 0 0
  outer loop
   vertex -0.5 50 -10
   vertex -0.5 1.73472e-15 -10
   vertex -0.5 50 10
  endloop
 endfacet
 facet normal -1 -0 0
  outer loop
   vertex -0.5 50 10
   vertex -0.5 1.73472e-15 -10
   vertex -0.5 1.73472e-15 10
  endloop
 endfacet
endsolid Blade
