solid Hub
 facet normal 0 0.0560721 0.998427
  outer loop
   vertex -10 0 10
   vertex 10 1.11964 9.93712
   vertex -10 1.11964 9.93712
  endloop
 endfacet
 facet normal -0 0.167502 0.985872
  outer loop
   vertex -10 1.11964 9.93712
   vertex 10 1.11964 9.93712
   vertex 10 2.22521 9.74928
  endloop
 endfacet
 facet normal 0 0.167502 0.985872
  outer loop
   vertex -10 1.11964 9.93712
   vertex 10 2.22521 9.74928
   vertex -10 2.22521 9.74928
  endloop
 endfacet
 facet normal -0 0.276841 0.960916
  outer loop
   vertex -10 2.22521 9.74928
   vertex 10 2.22521 9.74928
   vertex 10 3.30279 9.43883
  endloop
 endfacet
 facet normal 0 0.276841 0.960916
  outer loop
   vertex -10 2.22521 9.74928
   vertex 10 3.30279 9.43883
   vertex -10 3.30279 9.43883
  endloop
 endfacet
 facet normal -0 0.382679 0.923881
  outer loop
   vertex -10 3.30279 9.43883
   vertex 10 3.30279 9.43883
   vertex 10 4.33884 9.00969
  endloop
 endfacet
 facet normal 0 0.382679 0.923881
  outer loop
   vertex -10 3.30279 9.43883
   vertex 10 4.33884 9.00969
   vertex -10 4.33884 9.00969
  endloop
 endfacet
 facet normal -0 0.483722 0.875222
  outer loop
   vertex -10 4.33884 9.00969
   vertex 10 4.33884 9.00969
   vertex 10 5.32032 8.46724
  endloop
 endfacet
 facet normal 0 0.483722 0.875222
  outer loop
   vertex -10 4.33884 9.00969
   vertex 10 5.32032 8.46724
   vertex -10 5.32032 8.46724
  endloop
 endfacet
 facet normal -0 0.578672 0.81556
  outer loop
   vertex -10 5.32032 8.46724
   vertex 10 5.32032 8.46724
   vertex 10 6.2349 7.81831
  endloop
 endfacet
 facet normal 0 0.578672 0.81556
  outer loop
   vertex -10 5.32032 8.46724
   vertex 10 6.2349 7.81831
   vertex -10 6.2349 7.81831
  endloop
 endfacet
 facet normal -0 0.666343 0.745645
  outer loop
   vertex -10 6.2349 7.81831
   vertex 10 6.2349 7.81831
   vertex 10 7.07107 7.07107
  endloop
 endfacet
 facet normal 0 0.666343 0.745645
  outer loop
   vertex -10 6.2349 7.81831
   vertex 10 7.07107 7.07107
   vertex -10 7.07107 7.07107
  endloop
 endfacet
 facet normal -0 0.745645 0.666343
  outer loop
   vertex -10 7.07107 7.07107
   vertex 10 7.07107 7.07107
   vertex 10 7.81831 6.2349
  endloop
 endfacet
 facet normal 0 0.745645 0.666343
  outer loop
   vertex -10 7.07107 7.07107
   vertex 10 7.81831 6.2349
   vertex -10 7.81831 6.2349
  endloop
 endfacet
 facet normal -0 0.81556 0.578672
  outer loop
   vertex -10 7.81831 6.2349
   vertex 10 7.81831 6.2349
   vertex 10 8.46724 5.32032
  endloop
 endfacet
 facet normal 0 0.81556 0.578672
  outer loop
   vertex -10 7.81831 6.2349
   vertex 10 8.46724 5.32032
   vertex -10 8.46724 5.32032
  endloop
 endfacet
 facet normal -0 0.875222 0.483722
  outer loop
   vertex -10 8.46724 5.32032
   vertex 10 8.46724 5.32032
   vertex 10 9.00969 4.33884
  endloop
 endfacet
 facet normal 0 0.875222 0.483722
  outer loop
   vertex -10 8.46724 5.32032
   vertex 10 9.00969 4.33884
   vertex -10 9.00969 4.33884
  endloop
 endfacet
 facet normal -0 0.923881 0.382679
  outer loop
   vertex -10 9.00969 4.33884
   vertex 10 9.00969 4.33884
   vertex 10 9.43883 3.30279
  endloop
 endfacet
 facet normal 0 0.923881 0.382679
  outer loop
   vertex -10 9.00969 4.33884
   vertex 10 9.43883 3.30279
   vertex -10 9.43883 3.30279
  endloop
 endfacet
 facet normal -0 0.960916 0.276841
  outer loop
   vertex -10 9.43883 3.30279
   vertex 10 9.43883 3.30279
   vertex 10 9.74928 2.22521
  endloop
 endfacet
 facet normal 0 0.960916 0.276841
  outer loop
   vertex -10 9.43883 3.30279
   vertex 10 9.74928 2.22521
   vertex -10 9.74928 2.22521
  endloop
 endfacet
 facet normal -0 0.985872 0.167502
  outer loop
   vertex -10 9.74928 2.22521
   vertex 10 9.74928 2.22521
   vertex 10 9.93712 1.11964
  endloop
 endfacet
 facet normal 0 0.985872 0.167502
  outer loop
   vertex -10 9.74928 2.22521
   vertex 10 9.93712 1.11964
   vertex -10 9.93712 1.11964
  endloop
 endfacet
 facet normal -0 0.998427 0.0560721
  outer loop
   vertex -10 9.93712 1.11964
   vertex 10 9.93712 1.11964
   vertex 10 10 0
  endloop
 endfacet
 facet normal 0 0.998427 0.0560721
  outer loop
   vertex -10 9.93712 1.11964
   vertex 10 10 0
   vertex -10 10 0
  endloop
 endfacet
 facet normal 0 0.998427 -0.0560719
  outer loop
   vertex -10 10 0
   vertex 10 10 0
   vertex 10 9.93712 -1.11965
  endloop
 endfacet
 facet normal 0 0.998427 -0.0560719
  outer loop
   vertex -10 10 0
   vertex 10 9.93712 -1.11965
   vertex -10 9.93712 -1.11965
  endloop
 endfacet
 facet normal 0 0.985872 -0.167503
  outer loop
   vertex -10 9.93712 -1.11965
   vertex 10 9.93712 -1.11965
   vertex 10 9.74928 -2.22521
  endloop
 endfacet
 facet normal 0 0.985872 -0.167503
  outer loop
   vertex -10 9.93712 -1.11965
   vertex 10 9.74928 -2.22521
   vertex -10 9.74928 -2.22521
  endloop
 endfacet
 facet normal 0 0.960916 -0.27684
  outer loop
   vertex -10 9.74928 -2.22521
   vertex 10 9.74928 -2.22521
   vertex 10 9.43883 -3.30279
  endloop
 endfacet
 facet normal 0 0.960916 -0.27684
  outer loop
   vertex -10 9.74928 -2.22521
   vertex 10 9.43883 -3.30279
   vertex -10 9.43883 -3.30279
  endloop
 endfacet
 facet normal 0 0.923881 -0.38268
  outer loop
   vertex -10 9.43883 -3.30279
   vertex 10 9.43883 -3.30279
   vertex 10 9.00969 -4.33884
  endloop
 endfacet
 facet normal 0 0.923881 -0.38268
  outer loop
   vertex -10 9.43883 -3.30279
   vertex 10 9.00969 -4.33884
   vertex -10 9.00969 -4.33884
  endloop
 endfacet
 facet normal 0 0.875222 -0.483721
  outer loop
   vertex -10 9.00969 -4.33884
   vertex 10 9.00969 -4.33884
   vertex 10 8.46724 -5.32032
  endloop
 endfacet
 facet normal 0 0.875222 -0.483721
  outer loop
   vertex -10 9.00969 -4.33884
   vertex 10 8.46724 -5.32032
   vertex -10 8.46724 -5.32032
  endloop
 endfacet
 facet normal 0 0.81556 -0.578673
  outer loop
   vertex -10 8.46724 -5.32032
   vertex 10 8.46724 -5.32032
   vertex 10 7.81831 -6.2349
  endloop
 endfacet
 facet normal 0 0.81556 -0.578673
  outer loop
   vertex -10 8.46724 -5.32032
   vertex 10 7.81831 -6.2349
   vertex -10 7.81831 -6.2349
  endloop
 endfacet
 facet normal 0 0.745645 -0.666343
  outer loop
   vertex -10 7.81831 -6.2349
   vertex 10 7.81831 -6.2349
   vertex 10 7.07107 -7.07107
  endloop
 endfacet
 facet normal 0 0.745645 -0.666343
  outer loop
   vertex -10 7.81831 -6.2349
   vertex 10 7.07107 -7.07107
   vertex -10 7.07107 -7.07107
  endloop
 endfacet
 facet normal 0 0.666346 -0.745642
  outer loop
   vertex -10 7.07107 -7.07107
   vertex 10 7.07107 -7.07107
   vertex 10 6.2349 -7.81832
  endloop
 endfacet
 facet normal 0 0.666346 -0.745642
  outer loop
   vertex -10 7.07107 -7.07107
   vertex 10 6.2349 -7.81832
   vertex -10 6.2349 -7.81832
  endloop
 endfacet
 facet normal 0 0.57867 -0.815562
  outer loop
   vertex -10 6.2349 -7.81832
   vertex 10 6.2349 -7.81832
   vertex 10 5.32032 -8.46724
  endloop
 endfacet
 facet normal 0 0.57867 -0.815562
  outer loop
   vertex -10 6.2349 -7.81832
   vertex 10 5.32032 -8.46724
   vertex -10 5.32032 -8.46724
  endloop
 endfacet
 facet normal 0 0.48372 -0.875223
  outer loop
   vertex -10 5.32032 -8.46724
   vertex 10 5.32032 -8.46724
   vertex 10 4.33884 -9.00969
  endloop
 endfacet
 facet normal 0 0.48372 -0.875223
  outer loop
   vertex -10 5.32032 -8.46724
   vertex 10 4.33884 -9.00969
   vertex -10 4.33884 -9.00969
  endloop
 endfacet
 facet normal 0 0.382682 -0.92388
  outer loop
   vertex -10 4.33884 -9.00969
   vertex 10 4.33884 -9.00969
   vertex 10 3.30279 -9.43883
  endloop
 endfacet
 facet normal 0 0.382682 -0.92388
  outer loop
   vertex -10 4.33884 -9.00969
   vertex 10 3.30279 -9.43883
   vertex -10 3.30279 -9.43883
  endloop
 endfacet
 facet normal 0 0.276836 -0.960917
  outer loop
   vertex -10 3.30279 -9.43883
   vertex 10 3.30279 -9.43883
   vertex 10 2.22521 -9.74928
  endloop
 endfacet
 facet normal 0 0.276836 -0.960917
  outer loop
   vertex -10 3.30279 -9.43883
   vertex 10 2.22521 -9.74928
   vertex -10 2.22521 -9.74928
  endloop
 endfacet
 facet normal 0 0.167506 -0.985871
  outer loop
   vertex -10 2.22521 -9.74928
   vertex 10 2.22521 -9.74928
   vertex 10 1.11964 -9.93712
  endloop
 endfacet
 facet normal 0 0.167506 -0.985871
  outer loop
   vertex -10 2.22521 -9.74928
   vertex 10 1.11964 -9.93712
   vertex -10 1.11964 -9.93712
  endloop
 endfacet
 facet normal 0 0.0560701 -0.998427
  outer loop
   vertex -10 1.11964 -9.93712
   vertex 10 1.11964 -9.93712
   vertex 10 0 -10
  endloop
 endfacet
 facet normal 0 0.0560701 -0.998427
  outer loop
   vertex -10 1.11964 -9.93712
   vertex 10 0 -10
   vertex -10 0 -10
  endloop
 endfacet
 facet normal 0 -0.0560699 -0.998427
  outer loop
   vertex -10 0 -10
   vertex 10 0 -10
   vertex 10 -1.11965 -9.93712
  endloop
 endfacet
 facet normal 0 -0.0560699 -0.998427
  outer loop
   vertex -10 0 -10
   vertex 10 -1.11965 -9.93712
   vertex -10 -1.11965 -9.93712
  endloop
 endfacet
 facet normal 0 -0.167506 -0.985871
  outer loop
   vertex -10 -1.11965 -9.93712
   vertex 10 -1.11965 -9.93712
   vertex 10 -2.22521 -9.74928
  endloop
 endfacet
 facet normal 0 -0.167506 -0.985871
  outer loop
   vertex -10 -1.11965 -9.93712
   vertex 10 -2.22521 -9.74928
   vertex -10 -2.22521 -9.74928
  endloop
 endfacet
 facet normal 0 -0.276836 -0.960917
  outer loop
   vertex -10 -2.22521 -9.74928
   vertex 10 -2.22521 -9.74928
   vertex 10 -3.30279 -9.43883
  endloop
 endfacet
 facet normal 0 -0.276836 -0.960917
  outer loop
   vertex -10 -2.22521 -9.74928
   vertex 10 -3.30279 -9.43883
   vertex -10 -3.30279 -9.43883
  endloop
 endfacet
 facet normal 0 -0.382683 -0.92388
  outer loop
   vertex -10 -3.30279 -9.43883
   vertex 10 -3.30279 -9.43883
   vertex 10 -4.33884 -9.00969
  endloop
 endfacet
 facet normal 0 -0.382683 -0.92388
  outer loop
   vertex -10 -3.30279 -9.43883
   vertex 10 -4.33884 -9.00969
   vertex -10 -4.33884 -9.00969
  endloop
 endfacet
 facet normal 0 -0.483719 -0.875223
  outer loop
   vertex -10 -4.33884 -9.00969
   vertex 10 -4.33884 -9.00969
   vertex 10 -5.32032 -8.46724
  endloop
 endfacet
 facet normal 0 -0.483719 -0.875223
  outer loop
   vertex -10 -4.33884 -9.00969
   vertex 10 -5.32032 -8.46724
   vertex -10 -5.32032 -8.46724
  endloop
 endfacet
 facet normal 0 -0.578671 -0.815561
  outer loop
   vertex -10 -5.32032 -8.46724
   vertex 10 -5.32032 -8.46724
   vertex 10 -6.2349 -7.81832
  endloop
 endfacet
 facet normal 0 -0.578671 -0.815561
  outer loop
   vertex -10 -5.32032 -8.46724
   vertex 10 -6.2349 -7.81832
   vertex -10 -6.2349 -7.81832
  endloop
 endfacet
 facet normal 0 -0.666346 -0.745642
  outer loop
   vertex -10 -6.2349 -7.81832
   vertex 10 -6.2349 -7.81832
   vertex 10 -7.07107 -7.07107
  endloop
 endfacet
 facet normal 0 -0.666346 -0.745642
  outer loop
   vertex -10 -6.2349 -7.81832
   vertex 10 -7.07107 -7.07107
   vertex -10 -7.07107 -7.07107
  endloop
 endfacet
 facet normal 0 -0.745642 -0.666346
  outer loop
   vertex -10 -7.07107 -7.07107
   vertex 10 -7.07107 -7.07107
   vertex 10 -7.81832 -6.2349
  endloop
 endfacet
 facet normal 0 -0.745642 -0.666346
  outer loop
   vertex -10 -7.07107 -7.07107
   vertex 10 -7.81832 -6.2349
   vertex -10 -7.81832 -6.2349
  endloop
 endfacet
 facet normal 0 -0.815561 -0.578671
  outer loop
   vertex -10 -7.81832 -6.2349
   vertex 10 -7.81832 -6.2349
   vertex 10 -8.46724 -5.32032
  endloop
 endfacet
 facet normal 0 -0.815561 -0.578671
  outer loop
   vertex -10 -7.81832 -6.2349
   vertex 10 -8.46724 -5.32032
   vertex -10 -8.46724 -5.32032
  endloop
 endfacet
 facet normal 0 -0.875223 -0.483719
  outer loop
   vertex -10 -8.46724 -5.32032
   vertex 10 -8.46724 -5.32032
   vertex 10 -9.00969 -4.33884
  endloop
 endfacet
 facet normal 0 -0.875223 -0.483719
  outer loop
   vertex -10 -8.46724 -5.32032
   vertex 10 -9.00969 -4.33884
   vertex -10 -9.00969 -4.33884
  endloop
 endfacet
 facet normal 0 -0.92388 -0.382683
  outer loop
   vertex -10 -9.00969 -4.33884
   vertex 10 -9.00969 -4.33884
   vertex 10 -9.43883 -3.30279
  endloop
 endfacet
 facet normal 0 -0.92388 -0.382683
  outer loop
   vertex -10 -9.00969 -4.33884
   vertex 10 -9.43883 -3.30279
   vertex -10 -9.43883 -3.30279
  endloop
 endfacet
 facet normal 0 -0.960917 -0.276836
  outer loop
   vertex -10 -9.43883 -3.30279
   vertex 10 -9.43883 -3.30279
   vertex 10 -9.74928 -2.22521
  endloop
 endfacet
 facet normal 0 -0.960917 -0.276836
  outer loop
   vertex -10 -9.43883 -3.30279
   vertex 10 -9.74928 -2.22521
   vertex -10 -9.74928 -2.22521
  endloop
 endfacet
 facet normal 0 -0.985871 -0.167506
  outer loop
   vertex -10 -9.74928 -2.22521
   vertex 10 -9.74928 -2.22521
   vertex 10 -9.93712 -1.11965
  endloop
 endfacet
 facet normal 0 -0.985871 -0.167506
  outer loop
   vertex -10 -9.74928 -2.22521
   vertex 10 -9.93712 -1.11965
   vertex -10 -9.93712 -1.11965
  endloop
 endfacet
 facet normal 0 -0.998427 -0.0560699
  outer loop
   vertex -10 -9.93712 -1.11965
   vertex 10 -9.93712 -1.11965
   vertex 10 -10 0
  endloop
 endfacet
 facet normal 0 -0.998427 -0.0560699
  outer loop
   vertex -10 -9.93712 -1.11965
   vertex 10 -10 0
   vertex -10 -10 0
  endloop
 endfacet
 facet normal 0 -0.998427 0.0560701
  outer loop
   vertex -10 -10 0
   vertex 10 -10 0
   vertex 10 -9.93712 1.11964
  endloop
 endfacet
 facet normal 0 -0.998427 0.0560701
  outer loop
   vertex -10 -10 0
   vertex 10 -9.93712 1.11964
   vertex -10 -9.93712 1.11964
  endloop
 endfacet
 facet normal 0 -0.985871 0.167506
  outer loop
   vertex -10 -9.93712 1.11964
   vertex 10 -9.93712 1.11964
   vertex 10 -9.74928 2.22521
  endloop
 endfacet
 facet normal 0 -0.985871 0.167506
  outer loop
   vertex -10 -9.93712 1.11964
   vertex 10 -9.74928 2.22521
   vertex -10 -9.74928 2.22521
  endloop
 endfacet
 facet normal 0 -0.960917 0.276836
  outer loop
   vertex -10 -9.74928 2.22521
   vertex 10 -9.74928 2.22521
   vertex 10 -9.43883 3.30279
  endloop
 endfacet
 facet normal 0 -0.960917 0.276836
  outer loop
   vertex -10 -9.74928 2.22521
   vertex 10 -9.43883 3.30279
   vertex -10 -9.43883 3.30279
  endloop
 endfacet
 facet normal 0 -0.92388 0.382682
  outer loop
   vertex -10 -9.43883 3.30279
   vertex 10 -9.43883 3.30279
   vertex 10 -9.00969 4.33884
  endloop
 endfacet
 facet normal 0 -0.92388 0.382682
  outer loop
   vertex -10 -9.43883 3.30279
   vertex 10 -9.00969 4.33884
   vertex -10 -9.00969 4.33884
  endloop
 endfacet
 facet normal 0 -0.875223 0.48372
  outer loop
   vertex -10 -9.00969 4.33884
   vertex 10 -9.00969 4.33884
   vertex 10 -8.46724 5.32032
  endloop
 endfacet
 facet normal 0 -0.875223 0.48372
  outer loop
   vertex -10 -9.00969 4.33884
   vertex 10 -8.46724 5.32032
   vertex -10 -8.46724 5.32032
  endloop
 endfacet
 facet normal 0 -0.815562 0.57867
  outer loop
   vertex -10 -8.46724 5.32032
   vertex 10 -8.46724 5.32032
   vertex 10 -7.81832 6.2349
  endloop
 endfacet
 facet normal 0 -0.815562 0.57867
  outer loop
   vertex -10 -8.46724 5.32032
   vertex 10 -7.81832 6.2349
   vertex -10 -7.81832 6.2349
  endloop
 endfacet
 facet normal 0 -0.745642 0.666346
  outer loop
   vertex -10 -7.81832 6.2349
   vertex 10 -7.81832 6.2349
   vertex 10 -7.07107 7.07107
  endloop
 endfacet
 facet normal 0 -0.745642 0.666346
  outer loop
   vertex -10 -7.81832 6.2349
   vertex 10 -7.07107 7.07107
   vertex -10 -7.07107 7.07107
  endloop
 endfacet
 facet normal 0 -0.666343 0.745645
  outer loop
   vertex -10 -7.07107 7.07107
   vertex 10 -7.07107 7.07107
   vertex 10 -6.2349 7.81831
  endloop
 endfacet
 facet normal 0 -0.666343 0.745645
  outer loop
   vertex -10 -7.07107 7.07107
   vertex 10 -6.2349 7.81831
   vertex -10 -6.2349 7.81831
  endloop
 endfacet
 facet normal 0 -0.578673 0.81556
  outer loop
   vertex -10 -6.2349 7.81831
   vertex 10 -6.2349 7.81831
   vertex 10 -5.32032 8.46724
  endloop
 endfacet
 facet normal 0 -0.578673 0.81556
  outer loop
   vertex -10 -6.2349 7.81831
   vertex 10 -5.32032 8.46724
   vertex -10 -5.32032 8.46724
  endloop
 endfacet
 facet normal 0 -0.483721 0.875222
  outer loop
   vertex -10 -5.32032 8.46724
   vertex 10 -5.32032 8.46724
   vertex 10 -4.33884 9.00969
  endloop
 endfacet
 facet normal 0 -0.483721 0.875222
  outer loop
   vertex -10 -5.32032 8.46724
   vertex 10 -4.33884 9.00969
   vertex -10 -4.33884 9.00969
  endloop
 endfacet
 facet normal 0 -0.38268 0.923881
  outer loop
   vertex -10 -4.33884 9.00969
   vertex 10 -4.33884 9.00969
   vertex 10 -3.30279 9.43883
  endloop
 endfacet
 facet normal 0 -0.38268 0.923881
  outer loop
   vertex -10 -4.33884 9.00969
   vertex 10 -3.30279 9.43883
   vertex -10 -3.30279 9.43883
  endloop
 endfacet
 facet normal 0 -0.27684 0.960916
  outer loop
   vertex -10 -3.30279 9.43883
   vertex 10 -3.30279 9.43883
   vertex 10 -2.22521 9.74928
  endloop
 endfacet
 facet normal 0 -0.27684 0.960916
  outer loop
   vertex -10 -3.30279 9.43883
   vertex 10 -2.22521 9.74928
   vertex -10 -2.22521 9.74928
  endloop
 endfacet
 facet normal 0 -0.167503 0.985872
  outer loop
   vertex -10 -2.22521 9.74928
   vertex 10 -2.22521 9.74928
   vertex 10 -1.11965 9.93712
  endloop
 endfacet
 facet normal 0 -0.167503 0.985872
  outer loop
   vertex -10 -2.22521 9.74928
   vertex 10 -1.11965 9.93712
   vertex -10 -1.11965 9.93712
  endloop
 endfacet
 facet normal 0 -0.0560719 0.998427
  outer loop
   vertex -10 -1.11965 9.93712
   vertex 10 -1.11965 9.93712
   vertex 10 0 10
  endloop
 endfacet
 facet normal 0 -0.0560719 0.998427
  outer loop
   vertex -10 -1.11965 9.93712
   vertex 10 0 10
   vertex -10 0 10
  endloop
 endfacet
 facet normal -0 0.0560721 0.998427
  outer loop
   vertex -10 0 10
   vertex 10 0 10
   vertex 10 1.11964 9.93712
  endloop
 endfacet
 facet normal 1 0 0
  outer loop
   vertex 10 0 -10
   vertex 10 1.11964 -9.93712
   vertex 10 0 0
  endloop
 endfacet
 facet normal 1 0 -0
  outer loop
   vertex 10 0 -10
   vertex 10 0 0
   vertex 10 -1.11965 -9.93712
  endloop
 endfacet
 facet normal 1 -0 0
  outer loop
   vertex 10 -4.33884 -9.00969
   vertex 10 -3.30279 -9.43883
   vertex 10 0 0
  endloop
 endfacet
 facet normal 1 0 0
  outer loop
   vertex 10 0 0
   vertex 10 -3.30279 -9.43883
   vertex 10 -2.22521 -9.74928
  endloop
 endfacet
 facet normal 1 0 0
  outer loop
   vertex 10 0 0
   vertex 10 -2.22521 -9.74928
   vertex 10 -1.11965 -9.93712
  endloop
 endfacet
 facet normal 1 -0 0
  outer loop
   vertex 10 -7.07107 -7.07107
   vertex 10 -6.2349 -7.81832
   vertex 10 0 0
  endloop
 endfacet
 facet normal 1 0 0
  outer loop
   vertex 10 0 0
   vertex 10 -6.2349 -7.81832
   vertex 10 -5.32032 -8.46724
  endloop
 endfacet
 facet normal 1 0 0
  outer loop
   vertex 10 0 0
   vertex 10 -5.32032 -8.46724
   vertex 10 -4.33884 -9.00969
  endloop
 endfacet
 facet normal 1 -0 0
  outer loop
   vertex 10 -9.00969 -4.33884
   vertex 10 -8.46724 -5.32032
   vertex 10 0 0
  endloop
 endfacet
 facet normal 1 0 0
  outer loop
   vertex 10 0 0
   vertex 10 -8.46724 -5.32032
   vertex 10 -7.81832 -6.2349
  endloop
 endfacet
 facet normal 1 0 0
  outer loop
   vertex 10 0 0
   vertex 10 -7.81832 -6.2349
   vertex 10 -7.07107 -7.07107
  endloop
 endfacet
 facet normal 1 -0 0
  outer loop
   vertex 10 -9.93712 -1.11965
   vertex 10 -9.74928 -2.22521
   vertex 10 0 0
  endloop
 endfacet
 facet normal 1 0 0
  outer loop
   vertex 10 0 0
   vertex 10 -9.74928 -2.22521
   vertex 10 -9.43883 -3.30279
  endloop
 endfacet
 facet normal 1 0 0
  outer loop
   vertex 10 0 0
   vertex 10 -9.43883 -3.30279
   vertex 10 -9.00969 -4.33884
  endloop
 endfacet
 facet normal 1 0 0
  outer loop
   vertex 10 -9.74928 2.22521
   vertex 10 -9.93712 1.11964
   vertex 10 0 0
  endloop
 endfacet
 facet normal 1 0 0
  outer loop
   vertex 10 0 0
   vertex 10 -9.93712 1.11964
   vertex 10 -10 0
  endloop
 endfacet
 facet normal 1 0 0
  outer loop
   vertex 10 0 0
   vertex 10 -10 0
   vertex 10 -9.93712 -1.11965
  endloop
 endfacet
 facet normal 1 0 0
  outer loop
   vertex 10 -8.46724 5.32032
   vertex 10 -9.00969 4.33884
   vertex 10 0 0
  endloop
 endfacet
 facet normal 1 0 0
  outer loop
   vertex 10 0 0
   vertex 10 -9.00969 4.33884
   vertex 10 -9.43883 3.30279
  endloop
 endfacet
 facet normal 1 0 0
  outer loop
   vertex 10 0 0
   vertex 10 -9.43883 3.30279
   vertex 10 -9.74928 2.22521
  endloop
 endfacet
 facet normal 1 0 0
  outer loop
   vertex 10 -6.2349 7.81831
   vertex 10 -7.07107 7.07107
   vertex 10 0 0
  endloop
 endfacet
 facet normal 1 0 0
  outer loop
   vertex 10 0 0
   vertex 10 -7.07107 7.07107
   vertex 10 -7.81832 6.2349
  endloop
 endfacet
 facet normal 1 0 0
  outer loop
   vertex 10 0 0
   vertex 10 -7.81832 6.2349
   vertex 10 -8.46724 5.32032
  endloop
 endfacet
 facet normal 1 0 0
  outer loop
   vertex 10 -3.30279 9.43883
   vertex 10 -4.33884 9.00969
   vertex 10 0 0
  endloop
 endfacet
 facet normal 1 0 0
  outer loop
   vertex 10 0 0
   vertex 10 -4.33884 9.00969
   vertex 10 -5.32032 8.46724
  endloop
 endfacet
 facet normal 1 0 0
  outer loop
   vertex 10 0 0
   vertex 10 -5.32032 8.46724
   vertex 10 -6.2349 7.81831
  endloop
 endfacet
 facet normal 1 0 0
  outer loop
   vertex 10 0 10
   vertex 10 -1.11965 9.93712
   vertex 10 0 0
  endloop
 endfacet
 facet normal 1 0 0
  outer loop
   vertex 10 0 0
   vertex 10 -1.11965 9.93712
   vertex 10 -2.22521 9.74928
  endloop
 endfacet
 facet normal 1 0 0
  outer loop
   vertex 10 0 0
   vertex 10 -2.22521 9.74928
   vertex 10 -3.30279 9.43883
  endloop
 endfacet
 facet normal 1 0 0
  outer loop
   vertex 10 3.30279 9.43883
   vertex 10 2.22521 9.74928
   vertex 10 0 0
  endloop
 endfacet
 facet normal 1 0 0
  outer loop
   vertex 10 0 0
   vertex 10 2.22521 9.74928
   vertex 10 1.11964 9.93712
  endloop
 endfacet
 facet normal 1 0 0
  outer loop
   vertex 10 0 0
   vertex 10 1.11964 9.93712
   vertex 10 0 10
  endloop
 endfacet
 facet normal 1 0 0
  outer loop
   vertex 10 6.2349 7.81831
   vertex 10 5.32032 8.46724
   vertex 10 0 0
  endloop
 endfacet
 facet normal 1 0 0
  outer loop
   vertex 10 0 0
   vertex 10 5.32032 8.46724
   vertex 10 4.33884 9.00969
  endloop
 endfacet
 facet normal 1 0 0
  outer loop
   vertex 10 0 0
   vertex 10 4.33884 9.00969
   vertex 10 3.30279 9.43883
  endloop
 endfacet
 facet normal 1 0 0
  outer loop
   vertex 10 8.46724 5.32032
   vertex 10 7.81831 6.2349
   vertex 10 0 0
  endloop
 endfacet
 facet normal 1 0 0
  outer loop
   vertex 10 0 0
   vertex 10 7.81831 6.2349
   vertex 10 7.07107 7.07107
  endloop
 endfacet
 facet normal 1 0 0
  outer loop
   vertex 10 0 0
   vertex 10 7.07107 7.07107
   vertex 10 6.2349 7.81831
  endloop
 endfacet
 facet normal 1 0 0
  outer loop
   vertex 10 9.74928 2.22521
   vertex 10 9.43883 3.30279
   vertex 10 0 0
  endloop
 endfacet
 facet normal 1 0 0
  outer loop
   vertex 10 0 0
   vertex 10 9.43883 3.30279
   vertex 10 9.00969 4.33884
  endloop
 endfacet
 facet normal 1 0 0
  outer loop
   vertex 10 0 0
   vertex 10 9.00969 4.33884
   vertex 10 8.46724 5.32032
  endloop
 endfacet
 facet normal 1 0 -0
  outer loop
   vertex 10 9.93712 -1.11965
   vertex 10 10 0
   vertex 10 0 0
  endloop
 endfacet
 facet normal 1 0 0
  outer loop
   vertex 10 0 0
   vertex 10 10 0
   vertex 10 9.93712 1.11964
  endloop
 endfacet
 facet normal 1 0 0
  outer loop
   vertex 10 0 0
   vertex 10 9.93712 1.11964
   vertex 10 9.74928 2.22521
  endloop
 endfacet
 facet normal 1 0 -0
  outer loop
   vertex 10 9.00969 -4.33884
   vertex 10 9.43883 -3.30279
   vertex 10 0 0
  endloop
 endfacet
 facet normal 1 0 0
  outer loop
   vertex 10 0 0
   vertex 10 9.43883 -3.30279
   vertex 10 9.74928 -2.22521
  endloop
 endfacet
 facet normal 1 0 0
  outer loop
   vertex 10 0 0
   vertex 10 9.74928 -2.22521
   vertex 10 9.93712 -1.11965
  endloop
 endfacet
 facet normal 1 0 -0
  outer loop
   vertex 10 7.07107 -7.07107
   vertex 10 7.81831 -6.2349
   vertex 10 0 0
  endloop
 endfacet
 facet normal 1 0 0
  outer loop
   vertex 10 0 0
   vertex 10 7.81831 -6.2349
   vertex 10 8.46724 -5.32032
  endloop
 endfacet
 facet normal 1 0 0
  outer loop
   vertex 10 0 0
   vertex 10 8.46724 -5.32032
   vertex 10 9.00969 -4.33884
  endloop
 endfacet
 facet normal 1 0 -0
  outer loop
   vertex 10 4.33884 -9.00969
   vertex 10 5.32032 -8.46724
   vertex 10 0 0
  endloop
 endfacet
 facet normal 1 0 0
  outer loop
   vertex 10 0 0
   vertex 10 5.32032 -8.46724
   vertex 10 6.2349 -7.81832
  endloop
 endfacet
 facet normal 1 0 0
  outer loop
   vertex 10 0 0
   vertex 10 6.2349 -7.81832
   vertex 10 7.07107 -7.07107
  endloop
 endfacet
 facet normal 1 0 -0
  outer loop
   vertex 10 1.11964 -9.93712
   vertex 10 2.22521 -9.74928
   vertex 10 0 0
  endloop
 endfacet
 facet normal 1 0 0
  outer loop
   vertex 10 0 0
   vertex 10 2.22521 -9.74928
   vertex 10 3.30279 -9.43883
  endloop
 endfacet
 facet normal 1 0 0
  outer loop
   vertex 10 0 0
   vertex 10 3.30279 -9.43883
   vertex 10 4.33884 -9.00969
  endloop
 endfacet
 facet normal -1 0 0
  outer loop
   vertex -10 0 -10
   vertex -10 -1.11965 -9.93712
   vertex -10 0 0
  endloop
 endfacet
 facet normal -1 0 0
  outer loop
   vertex -10 0 -10
   vertex -10 0 0
   vertex -10 1.11964 -9.93712
  endloop
 endfacet
 facet normal -1 -0 0
  outer loop
   vertex -10 4.33884 -9.00969
   vertex -10 3.30279 -9.43883
   vertex -10 0 0
  endloop
 endfacet
 facet normal -1 0 0
  outer loop
   vertex -10 0 0
   vertex -10 3.30279 -9.43883
   vertex -10 2.22521 -9.74928
  endloop
 endfacet
 facet normal -1 0 0
  outer loop
   vertex -10 0 0
   vertex -10 2.22521 -9.74928
   vertex -10 1.11964 -9.93712
  endloop
 endfacet
 facet normal -1 -0 0
  outer loop
   vertex -10 7.07107 -7.07107
   vertex -10 6.2349 -7.81832
   vertex -10 0 0
  endloop
 endfacet
 facet normal -1 0 0
  outer loop
   vertex -10 0 0
   vertex -10 6.2349 -7.81832
   vertex -10 5.32032 -8.46724
  endloop
 endfacet
 facet normal -1 0 0
  outer loop
   vertex -10 0 0
   vertex -10 5.32032 -8.46724
   vertex -10 4.33884 -9.00969
  endloop
 endfacet
 facet normal -1 -0 0
  outer loop
   vertex -10 9.00969 -4.33884
   vertex -10 8.46724 -5.32032
   vertex -10 0 0
  endloop
 endfacet
 facet normal -1 0 0
  outer loop
   vertex -10 0 0
   vertex -10 8.46724 -5.32032
   vertex -10 7.81831 -6.2349
  endloop
 endfacet
 facet normal -1 0 0
  outer loop
   vertex -10 0 0
   vertex -10 7.81831 -6.2349
   vertex -10 7.07107 -7.07107
  endloop
 endfacet
 facet normal -1 -0 0
  outer loop
   vertex -10 9.93712 -1.11965
   vertex -10 9.74928 -2.22521
   vertex -10 0 0
  endloop
 endfacet
 facet normal -1 0 0
  outer loop
   vertex -10 0 0
   vertex -10 9.74928 -2.22521
   vertex -10 9.43883 -3.30279
  endloop
 endfacet
 facet normal -1 0 0
  outer loop
   vertex -10 0 0
   vertex -10 9.43883 -3.30279
   vertex -10 9.00969 -4.33884
  endloop
 endfacet
 facet normal -1 0 -0
  outer loop
   vertex -10 9.74928 2.22521
   vertex -10 9.93712 1.11964
   vertex -10 0 0
  endloop
 endfacet
 facet normal -1 0 0
  outer loop
   vertex -10 0 0
   vertex -10 9.93712 1.11964
   vertex -10 10 0
  endloop
 endfacet
 facet normal -1 0 0
  outer loop
   vertex -10 0 0
   vertex -10 10 0
   vertex -10 9.93712 -1.11965
  endloop
 endfacet
 facet normal -1 0 -0
  outer loop
   vertex -10 8.46724 5.32032
   vertex -10 9.00969 4.33884
   vertex -10 0 0
  endloop
 endfacet
 facet normal -1 0 0
  outer loop
   vertex -10 0 0
   vertex -10 9.00969 4.33884
   vertex -10 9.43883 3.30279
  endloop
 endfacet
 facet normal -1 0 0
  outer loop
   vertex -10 0 0
   vertex -10 9.43883 3.30279
   vertex -10 9.74928 2.22521
  endloop
 endfacet
 facet normal -1 0 -0
  outer loop
   vertex -10 6.2349 7.81831
   vertex -10 7.07107 7.07107
   vertex -10 0 0
  endloop
 endfacet
 facet normal -1 0 0
  outer loop
   vertex -10 0 0
   vertex -10 7.07107 7.07107
   vertex -10 7.81831 6.2349
  endloop
 endfacet
 facet normal -1 0 0
  outer loop
   vertex -10 0 0
   vertex -10 7.81831 6.2349
   vertex -10 8.46724 5.32032
  endloop
 endfacet
 facet normal -1 0 -0
  outer loop
   vertex -10 3.30279 9.43883
   vertex -10 4.33884 9.00969
   vertex -10 0 0
  endloop
 endfacet
 facet normal -1 0 0
  outer loop
   vertex -10 0 0
   vertex -10 4.33884 9.00969
   vertex -10 5.32032 8.46724
  endloop
 endfacet
 facet normal -1 0 0
  outer loop
   vertex -10 0 0
   vertex -10 5.32032 8.46724
   vertex -10 6.2349 7.81831
  endloop
 endfacet
 facet normal -1 0 0
  outer loop
   vertex -10 0 10
   vertex -10 1.11964 9.93712
   vertex -10 0 0
  endloop
 endfacet
 facet normal -1 0 0
  outer loop
   vertex -10 0 0
   vertex -10 1.11964 9.93712
   vertex -10 2.22521 9.74928
  endloop
 endfacet
 facet normal -1 0 0
  outer loop
   vertex -10 0 0
   vertex -10 2.22521 9.74928
   vertex -10 3.30279 9.43883
  endloop
 endfacet
 facet normal -1 0 0
  outer loop
   vertex -10 -3.30279 9.43883
   vertex -10 -2.22521 9.74928
   vertex -10 0 0
  endloop
 endfacet
 facet normal -1 0 0
  outer loop
   vertex -10 0 0
   vertex -10 -2.22521 9.74928
   vertex -10 -1.11965 9.93712
  endloop
 endfacet
 facet normal -1 0 0
  outer loop
   vertex -10 0 0
   vertex -10 -1.11965 9.93712
   vertex -10 0 10
  endloop
 endfacet
 facet normal -1 0 0
  outer loop
   vertex -10 -6.2349 7.81831
   vertex -10 -5.32032 8.46724
   vertex -10 0 0
  endloop
 endfacet
 facet normal -1 0 0
  outer loop
   vertex -10 0 0
   vertex -10 -5.32032 8.46724
   vertex -10 -4.33884 9.00969
  endloop
 endfacet
 facet normal -1 0 0
  outer loop
   vertex -10 0 0
   vertex -10 -4.33884 9.00969
   vertex -10 -3.30279 9.43883
  endloop
 endfacet
 facet normal -1 0 0
  outer loop
   vertex -10 -8.46724 5.32032
   vertex -10 -7.81832 6.2349
   vertex -10 0 0
  endloop
 endfacet
 facet normal -1 0 0
  outer loop
   vertex -10 0 0
   vertex -10 -7.81832 6.2349
   vertex -10 -7.07107 7.07107
  endloop
 endfacet
 facet normal -1 0 0
  outer loop
   vertex -10 0 0
   vertex -10 -7.07107 7.07107
   vertex -10 -6.2349 7.81831
  endloop
 endfacet
 facet normal -1 0 0
  outer loop
   vertex -10 -9.74928 2.22521
   vertex -10 -9.43883 3.30279
   vertex -10 0 0
  endloop
 endfacet
 facet normal -1 0 0
  outer loop
   vertex -10 0 0
   vertex -10 -9.43883 3.30279
   vertex -10 -9.00969 4.33884
  endloop
 endfacet
 facet normal -1 0 0
  outer loop
   vertex -10 0 0
   vertex -10 -9.00969 4.33884
   vertex -10 -8.46724 5.32032
  endloop
 endfacet
 facet normal -1 0 0
  outer loop
   vertex -10 -9.93712 -1.11965
   vertex -10 -10 0
   vertex -10 0 0
  endloop
 endfacet
 facet normal -1 0 0
  outer loop
   vertex -10 0 0
   vertex -10 -10 0
   vertex -10 -9.93712 1.11964
  endloop
 endfacet
 facet normal -1 0 0
  outer loop
   vertex -10 0 0
   vertex -10 -9.93712 1.11964
   vertex -10 -9.74928 2.22521
  endloop
 endfacet
 facet normal -1 0 0
  outer loop
   vertex -10 -9.00969 -4.33884
   vertex -10 -9.43883 -3.30279
   vertex -10 0 0
  endloop
 endfacet
 facet normal -1 0 0
  outer loop
   vertex -10 0 0
   vertex -10 -9.43883 -3.30279
   vertex -10 -9.74928 -2.22521
  endloop
 endfacet
 facet normal -1 0 0
  outer loop
   vertex -10 0 0
   vertex -10 -9.74928 -2.22521
   vertex -10 -9.93712 -1.11965
  endloop
 endfacet
 facet normal -1 0 0
  outer loop
   vertex -10 -7.07107 -7.07107
   vertex -10 -7.81832 -6.2349
   vertex -10 0 0
  endloop
 endfacet
 facet normal -1 0 0
  outer loop
   vertex -10 0 0
   vertex -10 -7.81832 -6.2349
   vertex -10 -8.46724 -5.32032
  endloop
 endfacet
 facet normal -1 0 0
  outer loop
   vertex -10 0 0
   vertex -10 -8.46724 -5.32032
   vertex -10 -9.00969 -4.33884
  endloop
 endfacet
 facet normal -1 0 0
  outer loop
   vertex -10 -4.33884 -9.00969
   vertex -10 -5.32032 -8.46724
   vertex -10 0 0
  endloop
 endfacet
 facet normal -1 0 0
  outer loop
   vertex -10 0 0
   vertex -10 -5.32032 -8.46724
   vertex -10 -6.2349 -7.81832
  endloop
 endfacet
 facet normal -1 0 0
  outer loop
   vertex -10 0 0
   vertex -10 -6.2349 -7.81832
   vertex -10 -7.07107 -7.07107
  endloop
 endfacet
 facet normal -1 0 0
  outer loop
   vertex -10 -1.11965 -9.93712
   vertex -10 -2.22521 -9.74928
   vertex -10 0 0
  endloop
 endfacet
 facet normal -1 0 0
  outer loop
   vertex -10 0 0
   vertex -10 -2.22521 -9.74928
   vertex -10 -3.30279 -9.43883
  endloop
 endfacet
 facet normal -1 0 0
  outer loop
   vertex -10 0 0
   vertex -10 -3.30279 -9.43883
   vertex -10 -4.33884 -9.00969
  endloop
 endfacet
endsolid Hub
